<svg width="18" height="12" viewBox="0 0 18 12" fill="none" xmlns="http://www.w3.org/2000/svg">
<path fill-rule="evenodd" clip-rule="evenodd" d="M17.0484 0.351344C17.2734 0.576377 17.3997 0.881547 17.3997 1.19974C17.3997 1.51794 17.2734 1.82311 17.0484 2.04814L7.4484 11.6481C7.22337 11.8731 6.9182 11.9995 6.6 11.9995C6.2818 11.9995 5.97663 11.8731 5.7516 11.6481L0.9516 6.84814C0.733011 6.62182 0.612057 6.3187 0.614791 6.00406C0.617526 5.68943 0.743728 5.38845 0.966218 5.16596C1.18871 4.94347 1.48968 4.81727 1.80432 4.81454C2.11895 4.8118 2.42208 4.93275 2.6484 5.15134L6.6 9.10295L15.3516 0.351344C15.5766 0.126379 15.8818 0 16.2 0C16.5182 0 16.8234 0.126379 17.0484 0.351344Z" fill="#91CE33"/>
</svg>
