<svg width="40" height="40" viewBox="0 0 40 40" fill="none" xmlns="http://www.w3.org/2000/svg">
<path d="M20 40C31.0457 40 40 31.0457 40 20C40 8.9543 31.0457 0 20 0C8.9543 0 0 8.9543 0 20C0 31.0457 8.9543 40 20 40Z" fill="#32BA7C"/>
<path d="M14.8896 29.022L25.1736 39.3059C33.6909 37.0346 40.0001 29.2744 40.0001 19.9999C40.0001 19.8106 40.0001 19.6214 40.0001 19.4321L31.9243 11.9873L14.8896 29.022Z" fill="#5CB85C"/>
<path d="M20.5047 24.4794C21.388 25.3627 21.388 26.8769 20.5047 27.7601L18.6751 29.5898C17.7918 30.4731 16.2776 30.4731 15.3943 29.5898L7.3817 21.5141C6.49842 20.6308 6.49842 19.1166 7.3817 18.2333L9.21135 16.4037C10.0946 15.5204 11.6088 15.5204 12.4921 16.4037L20.5047 24.4794Z" fill="white"/>
<path d="M27.5079 10.5365C28.3912 9.6532 29.9054 9.6532 30.7887 10.5365L32.6183 12.3661C33.5016 13.2494 33.5016 14.7636 32.6183 15.6469L18.7382 29.4639C17.8549 30.3472 16.3407 30.3472 15.4574 29.4639L13.6278 27.6343C12.7445 26.751 12.7445 25.2368 13.6278 24.3535L27.5079 10.5365Z" fill="white"/>
</svg>
