<svg width="72" height="106" viewBox="0 0 72 106" fill="none" xmlns="http://www.w3.org/2000/svg">
<path d="M20.7825 5.02247C19.6325 6.17247 17.7725 6.17247 16.6225 5.02247C15.4725 3.87247 15.4725 2.0125 16.6225 0.8625C17.7725 -0.2875 19.6325 -0.2875 20.7825 0.8625C21.9325 2.0125 21.9325 3.87247 20.7825 5.02247ZM33.2225 13.3025C32.0725 12.1525 30.2125 12.1525 29.0625 13.3025C27.9125 14.4525 27.9125 16.3125 29.0625 17.4625C30.2125 18.6125 32.0725 18.6125 33.2225 17.4625C34.3725 16.3125 34.3725 14.4525 33.2225 13.3025ZM45.6625 25.7425C44.5125 24.5925 42.6525 24.5925 41.5025 25.7425C40.3525 26.8925 40.3525 28.7525 41.5025 29.9025C42.6525 31.0525 44.5125 31.0525 45.6625 29.9025C46.8125 28.7525 46.8125 26.8925 45.6625 25.7425ZM58.1025 38.1825C56.9525 37.0325 55.0925 37.0325 53.9425 38.1825C52.7925 39.3325 52.7925 41.1925 53.9425 42.3425C55.0925 43.4925 56.9525 43.4925 58.1025 42.3425C59.2525 41.1925 59.2525 39.3325 58.1025 38.1825ZM70.5425 50.6225C69.3925 49.4725 67.5325 49.4725 66.3825 50.6225C65.2325 51.7725 65.2325 53.6325 66.3825 54.7825C67.5325 55.9325 69.3925 55.9325 70.5425 54.7825C71.6925 53.6325 71.6925 51.7725 70.5425 50.6225ZM8.34254 13.3025C7.19254 12.1525 5.33251 12.1525 4.18251 13.3025C3.03251 14.4525 3.03251 16.3125 4.18251 17.4625C5.33251 18.6125 7.19254 18.6125 8.34254 17.4625C9.49254 16.3125 9.49254 14.4525 8.34254 13.3025ZM20.7825 25.7425C19.6325 24.5925 17.7725 24.5925 16.6225 25.7425C15.4725 26.8925 15.4725 28.7525 16.6225 29.9025C17.7725 31.0525 19.6325 31.0525 20.7825 29.9025C21.9325 28.7525 21.9325 26.8925 20.7825 25.7425ZM33.2225 38.1825C32.0725 37.0325 30.2125 37.0325 29.0625 38.1825C27.9125 39.3325 27.9125 41.1925 29.0625 42.3425C30.2125 43.4925 32.0725 43.4925 33.2225 42.3425C34.3725 41.1925 34.3725 39.3325 33.2225 38.1825ZM45.6625 50.6225C44.5125 49.4725 42.6525 49.4725 41.5025 50.6225C40.3525 51.7725 40.3525 53.6325 41.5025 54.7825C42.6525 55.9325 44.5125 55.9325 45.6625 54.7825C46.8125 53.6325 46.8125 51.7725 45.6625 50.6225ZM58.1025 63.0625C56.9525 61.9125 55.0925 61.9125 53.9425 63.0625C52.7925 64.2125 52.7925 66.0725 53.9425 67.2225C55.0925 68.3725 56.9525 68.3725 58.1025 67.2225C59.2525 66.0725 59.2525 64.2125 58.1025 63.0625ZM-4.09746 25.7425C-5.24746 24.5925 -7.1075 24.5925 -8.2575 25.7425C-9.4075 26.8925 -9.4075 28.7525 -8.2575 29.9025C-7.1075 31.0525 -5.24746 31.0525 -4.09746 29.9025C-2.94746 28.7525 -2.94746 26.8925 -4.09746 25.7425ZM8.34254 38.1825C7.19254 37.0325 5.33251 37.0325 4.18251 38.1825C3.03251 39.3325 3.03251 41.1925 4.18251 42.3425C5.33251 43.4925 7.19254 43.4925 8.34254 42.3425C9.49254 41.1925 9.49254 39.3325 8.34254 38.1825ZM20.7825 50.6225C19.6325 49.4725 17.7725 49.4725 16.6225 50.6225C15.4725 51.7725 15.4725 53.6325 16.6225 54.7825C17.7725 55.9325 19.6325 55.9325 20.7825 54.7825C21.9325 53.6325 21.9325 51.7725 20.7825 50.6225ZM33.2225 63.0625C32.0725 61.9125 30.2125 61.9125 29.0625 63.0625C27.9125 64.2125 27.9125 66.0725 29.0625 67.2225C30.2125 68.3725 32.0725 68.3725 33.2225 67.2225C34.3725 66.0725 34.3725 64.2125 33.2225 63.0625ZM45.6625 75.5025C44.5125 74.3525 42.6525 74.3525 41.5025 75.5025C40.3525 76.6525 40.3525 78.5125 41.5025 79.6625C42.6525 80.8125 44.5125 80.8125 45.6625 79.6625C46.8125 78.5125 46.8125 76.6425 45.6625 75.5025ZM-16.5375 38.1825C-17.6875 37.0325 -19.5475 37.0325 -20.6975 38.1825C-21.8475 39.3325 -21.8475 41.1925 -20.6975 42.3425C-19.5475 43.4925 -17.6875 43.4925 -16.5375 42.3425C-15.3875 41.1925 -15.3875 39.3325 -16.5375 38.1825ZM-4.09746 50.6225C-5.24746 49.4725 -7.1075 49.4725 -8.2575 50.6225C-9.4075 51.7725 -9.4075 53.6325 -8.2575 54.7825C-7.1075 55.9325 -5.24746 55.9325 -4.09746 54.7825C-2.94746 53.6325 -2.94746 51.7725 -4.09746 50.6225ZM8.34254 63.0625C7.19254 61.9125 5.33251 61.9125 4.18251 63.0625C3.03251 64.2125 3.03251 66.0725 4.18251 67.2225C5.33251 68.3725 7.19254 68.3725 8.34254 67.2225C9.49254 66.0725 9.49254 64.2125 8.34254 63.0625ZM20.7825 75.5025C19.6325 74.3525 17.7725 74.3525 16.6225 75.5025C15.4725 76.6525 15.4725 78.5125 16.6225 79.6625C17.7725 80.8125 19.6325 80.8125 20.7825 79.6625C21.9325 78.5125 21.9325 76.6425 20.7825 75.5025ZM33.2225 87.9425C32.0725 86.7925 30.2125 86.7925 29.0625 87.9425C27.9125 89.0925 27.9125 90.9525 29.0625 92.1025C30.2125 93.2525 32.0725 93.2525 33.2225 92.1025C34.3725 90.9525 34.3725 89.0825 33.2225 87.9425ZM-28.9775 50.6225C-30.1275 49.4725 -31.9875 49.4725 -33.1375 50.6225C-34.2875 51.7725 -34.2875 53.6325 -33.1375 54.7825C-31.9875 55.9325 -30.1275 55.9325 -28.9775 54.7825C-27.8275 53.6325 -27.8275 51.7725 -28.9775 50.6225ZM-16.5375 63.0625C-17.6875 61.9125 -19.5475 61.9125 -20.6975 63.0625C-21.8475 64.2125 -21.8475 66.0725 -20.6975 67.2225C-19.5475 68.3725 -17.6875 68.3725 -16.5375 67.2225C-15.3875 66.0725 -15.3875 64.2125 -16.5375 63.0625ZM-4.09746 75.5025C-5.24746 74.3525 -7.1075 74.3525 -8.2575 75.5025C-9.4075 76.6525 -9.4075 78.5125 -8.2575 79.6625C-7.1075 80.8125 -5.24746 80.8125 -4.09746 79.6625C-2.94746 78.5125 -2.94746 76.6425 -4.09746 75.5025ZM8.34254 87.9425C7.19254 86.7925 5.33251 86.7925 4.18251 87.9425C3.03251 89.0925 3.03251 90.9525 4.18251 92.1025C5.33251 93.2525 7.19254 93.2525 8.34254 92.1025C9.49254 90.9525 9.49254 89.0825 8.34254 87.9425ZM20.7825 100.372C19.6325 99.2225 17.7725 99.2225 16.6225 100.372C15.4725 101.522 15.4725 103.382 16.6225 104.532C17.7725 105.682 19.6325 105.682 20.7825 104.532C21.9325 103.392 21.9325 101.522 20.7825 100.372Z" fill="#FAAC30"/>
</svg>
