<svg width="230" height="300" viewBox="0 0 230 300" fill="none" xmlns="http://www.w3.org/2000/svg">
<path d="M1.2 2.40002C1.86274 2.40002 2.4 1.86275 2.4 1.20001C2.4 0.53727 1.86274 0 1.2 0C0.537255 0 0 0.53727 0 1.20001C0 1.86275 0.537255 2.40002 1.2 2.40002Z" fill="#12362A"/>
<path d="M14.9798 2.40002C15.6425 2.40002 16.1798 1.86275 16.1798 1.20001C16.1798 0.53727 15.6425 0 14.9798 0C14.317 0 13.7798 0.53727 13.7798 1.20001C13.7798 1.86275 14.317 2.40002 14.9798 2.40002Z" fill="#12362A"/>
<path d="M28.7601 2.40002C29.4228 2.40002 29.9601 1.86275 29.9601 1.20001C29.9601 0.53727 29.4228 0 28.7601 0C28.0973 0 27.5601 0.53727 27.5601 1.20001C27.5601 1.86275 28.0973 2.40002 28.7601 2.40002Z" fill="#12362A"/>
<path d="M42.5398 2.40002C43.2026 2.40002 43.7398 1.86275 43.7398 1.20001C43.7398 0.53727 43.2026 0 42.5398 0C41.8771 0 41.3398 0.53727 41.3398 1.20001C41.3398 1.86275 41.8771 2.40002 42.5398 2.40002Z" fill="#12362A"/>
<path d="M56.3201 2.40002C56.9829 2.40002 57.5201 1.86275 57.5201 1.20001C57.5201 0.53727 56.9829 0 56.3201 0C55.6574 0 55.1201 0.53727 55.1201 1.20001C55.1201 1.86275 55.6574 2.40002 56.3201 2.40002Z" fill="#12362A"/>
<path d="M70.0999 2.40002C70.7626 2.40002 71.2999 1.86275 71.2999 1.20001C71.2999 0.53727 70.7626 0 70.0999 0C69.4372 0 68.8999 0.53727 68.8999 1.20001C68.8999 1.86275 69.4372 2.40002 70.0999 2.40002Z" fill="#12362A"/>
<path d="M83.8899 2.40002C84.5527 2.40002 85.09 1.86275 85.09 1.20001C85.09 0.53727 84.5527 0 83.8899 0C83.2272 0 82.6899 0.53727 82.6899 1.20001C82.6899 1.86275 83.2272 2.40002 83.8899 2.40002Z" fill="#12362A"/>
<path d="M97.6702 2.40002C98.333 2.40002 98.8702 1.86275 98.8702 1.20001C98.8702 0.53727 98.333 0 97.6702 0C97.0075 0 96.4702 0.53727 96.4702 1.20001C96.4702 1.86275 97.0075 2.40002 97.6702 2.40002Z" fill="#12362A"/>
<path d="M112.65 1.20001C112.65 1.86001 112.11 2.40002 111.45 2.40002C110.79 2.40002 110.25 1.86001 110.25 1.20001C110.25 0.540012 110.79 0 111.45 0C112.11 0 112.65 0.540012 112.65 1.20001Z" fill="#12362A"/>
<path d="M125.23 2.40002C125.893 2.40002 126.43 1.86275 126.43 1.20001C126.43 0.53727 125.893 0 125.23 0C124.567 0 124.03 0.53727 124.03 1.20001C124.03 1.86275 124.567 2.40002 125.23 2.40002Z" fill="#12362A"/>
<path d="M139.01 2.40002C139.673 2.40002 140.21 1.86275 140.21 1.20001C140.21 0.53727 139.673 0 139.01 0C138.347 0 137.81 0.53727 137.81 1.20001C137.81 1.86275 138.347 2.40002 139.01 2.40002Z" fill="#12362A"/>
<path d="M152.79 2.40002C153.453 2.40002 153.99 1.86275 153.99 1.20001C153.99 0.53727 153.453 0 152.79 0C152.127 0 151.59 0.53727 151.59 1.20001C151.59 1.86275 152.127 2.40002 152.79 2.40002Z" fill="#12362A"/>
<path d="M166.58 2.40002C167.243 2.40002 167.78 1.86275 167.78 1.20001C167.78 0.53727 167.243 0 166.58 0C165.917 0 165.38 0.53727 165.38 1.20001C165.38 1.86275 165.917 2.40002 166.58 2.40002Z" fill="#12362A"/>
<path d="M180.36 2.40002C181.023 2.40002 181.56 1.86275 181.56 1.20001C181.56 0.53727 181.023 0 180.36 0C179.697 0 179.16 0.53727 179.16 1.20001C179.16 1.86275 179.697 2.40002 180.36 2.40002Z" fill="#12362A"/>
<path d="M194.14 2.40002C194.803 2.40002 195.34 1.86275 195.34 1.20001C195.34 0.53727 194.803 0 194.14 0C193.477 0 192.94 0.53727 192.94 1.20001C192.94 1.86275 193.477 2.40002 194.14 2.40002Z" fill="#12362A"/>
<path d="M207.92 2.40002C208.583 2.40002 209.12 1.86275 209.12 1.20001C209.12 0.53727 208.583 0 207.92 0C207.257 0 206.72 0.53727 206.72 1.20001C206.72 1.86275 207.257 2.40002 207.92 2.40002Z" fill="#12362A"/>
<path d="M221.7 2.40002C222.363 2.40002 222.9 1.86275 222.9 1.20001C222.9 0.53727 222.363 0 221.7 0C221.037 0 220.5 0.53727 220.5 1.20001C220.5 1.86275 221.037 2.40002 221.7 2.40002Z" fill="#12362A"/>
<path d="M1.2 15.8805C1.86274 15.8805 2.4 15.3432 2.4 14.6805C2.4 14.0177 1.86274 13.4805 1.2 13.4805C0.537255 13.4805 0 14.0177 0 14.6805C0 15.3432 0.537255 15.8805 1.2 15.8805Z" fill="#12362A"/>
<path d="M14.9798 15.8805C15.6425 15.8805 16.1798 15.3432 16.1798 14.6805C16.1798 14.0177 15.6425 13.4805 14.9798 13.4805C14.317 13.4805 13.7798 14.0177 13.7798 14.6805C13.7798 15.3432 14.317 15.8805 14.9798 15.8805Z" fill="#12362A"/>
<path d="M28.7601 15.8805C29.4228 15.8805 29.9601 15.3432 29.9601 14.6805C29.9601 14.0177 29.4228 13.4805 28.7601 13.4805C28.0973 13.4805 27.5601 14.0177 27.5601 14.6805C27.5601 15.3432 28.0973 15.8805 28.7601 15.8805Z" fill="#12362A"/>
<path d="M42.5398 15.8805C43.2026 15.8805 43.7398 15.3432 43.7398 14.6805C43.7398 14.0177 43.2026 13.4805 42.5398 13.4805C41.8771 13.4805 41.3398 14.0177 41.3398 14.6805C41.3398 15.3432 41.8771 15.8805 42.5398 15.8805Z" fill="#12362A"/>
<path d="M56.3201 15.8805C56.9829 15.8805 57.5201 15.3432 57.5201 14.6805C57.5201 14.0177 56.9829 13.4805 56.3201 13.4805C55.6574 13.4805 55.1201 14.0177 55.1201 14.6805C55.1201 15.3432 55.6574 15.8805 56.3201 15.8805Z" fill="#12362A"/>
<path d="M70.0999 15.8805C70.7626 15.8805 71.2999 15.3432 71.2999 14.6805C71.2999 14.0177 70.7626 13.4805 70.0999 13.4805C69.4372 13.4805 68.8999 14.0177 68.8999 14.6805C68.8999 15.3432 69.4372 15.8805 70.0999 15.8805Z" fill="#12362A"/>
<path d="M83.8899 15.8805C84.5527 15.8805 85.09 15.3432 85.09 14.6805C85.09 14.0177 84.5527 13.4805 83.8899 13.4805C83.2272 13.4805 82.6899 14.0177 82.6899 14.6805C82.6899 15.3432 83.2272 15.8805 83.8899 15.8805Z" fill="#12362A"/>
<path d="M97.6702 15.8805C98.333 15.8805 98.8702 15.3432 98.8702 14.6805C98.8702 14.0177 98.333 13.4805 97.6702 13.4805C97.0075 13.4805 96.4702 14.0177 96.4702 14.6805C96.4702 15.3432 97.0075 15.8805 97.6702 15.8805Z" fill="#12362A"/>
<path d="M112.65 14.6805C112.65 15.3405 112.11 15.8805 111.45 15.8805C110.79 15.8805 110.25 15.3405 110.25 14.6805C110.25 14.0205 110.79 13.4805 111.45 13.4805C112.11 13.4905 112.65 14.0205 112.65 14.6805Z" fill="#12362A"/>
<path d="M125.23 15.8805C125.893 15.8805 126.43 15.3432 126.43 14.6805C126.43 14.0177 125.893 13.4805 125.23 13.4805C124.567 13.4805 124.03 14.0177 124.03 14.6805C124.03 15.3432 124.567 15.8805 125.23 15.8805Z" fill="#12362A"/>
<path d="M139.01 15.8805C139.673 15.8805 140.21 15.3432 140.21 14.6805C140.21 14.0177 139.673 13.4805 139.01 13.4805C138.347 13.4805 137.81 14.0177 137.81 14.6805C137.81 15.3432 138.347 15.8805 139.01 15.8805Z" fill="#12362A"/>
<path d="M152.79 15.8805C153.453 15.8805 153.99 15.3432 153.99 14.6805C153.99 14.0177 153.453 13.4805 152.79 13.4805C152.127 13.4805 151.59 14.0177 151.59 14.6805C151.59 15.3432 152.127 15.8805 152.79 15.8805Z" fill="#12362A"/>
<path d="M166.58 15.8805C167.243 15.8805 167.78 15.3432 167.78 14.6805C167.78 14.0177 167.243 13.4805 166.58 13.4805C165.917 13.4805 165.38 14.0177 165.38 14.6805C165.38 15.3432 165.917 15.8805 166.58 15.8805Z" fill="#12362A"/>
<path d="M180.36 15.8805C181.023 15.8805 181.56 15.3432 181.56 14.6805C181.56 14.0177 181.023 13.4805 180.36 13.4805C179.697 13.4805 179.16 14.0177 179.16 14.6805C179.16 15.3432 179.697 15.8805 180.36 15.8805Z" fill="#12362A"/>
<path d="M194.14 15.8805C194.803 15.8805 195.34 15.3432 195.34 14.6805C195.34 14.0177 194.803 13.4805 194.14 13.4805C193.477 13.4805 192.94 14.0177 192.94 14.6805C192.94 15.3432 193.477 15.8805 194.14 15.8805Z" fill="#12362A"/>
<path d="M207.92 15.8805C208.583 15.8805 209.12 15.3432 209.12 14.6805C209.12 14.0177 208.583 13.4805 207.92 13.4805C207.257 13.4805 206.72 14.0177 206.72 14.6805C206.72 15.3432 207.257 15.8805 207.92 15.8805Z" fill="#12362A"/>
<path d="M221.7 15.8805C222.363 15.8805 222.9 15.3432 222.9 14.6805C222.9 14.0177 222.363 13.4805 221.7 13.4805C221.037 13.4805 220.5 14.0177 220.5 14.6805C220.5 15.3432 221.037 15.8805 221.7 15.8805Z" fill="#12362A"/>
<path d="M1.2 29.3698C1.86274 29.3698 2.4 28.8325 2.4 28.1697C2.4 27.507 1.86274 26.9697 1.2 26.9697C0.537255 26.9697 0 27.507 0 28.1697C0 28.8325 0.537255 29.3698 1.2 29.3698Z" fill="#12362A"/>
<path d="M14.9798 29.3698C15.6425 29.3698 16.1798 28.8325 16.1798 28.1697C16.1798 27.507 15.6425 26.9697 14.9798 26.9697C14.317 26.9697 13.7798 27.507 13.7798 28.1697C13.7798 28.8325 14.317 29.3698 14.9798 29.3698Z" fill="#12362A"/>
<path d="M28.7601 29.3698C29.4228 29.3698 29.9601 28.8325 29.9601 28.1697C29.9601 27.507 29.4228 26.9697 28.7601 26.9697C28.0973 26.9697 27.5601 27.507 27.5601 28.1697C27.5601 28.8325 28.0973 29.3698 28.7601 29.3698Z" fill="#12362A"/>
<path d="M42.5398 29.3698C43.2026 29.3698 43.7398 28.8325 43.7398 28.1697C43.7398 27.507 43.2026 26.9697 42.5398 26.9697C41.8771 26.9697 41.3398 27.507 41.3398 28.1697C41.3398 28.8325 41.8771 29.3698 42.5398 29.3698Z" fill="#12362A"/>
<path d="M56.3201 29.3698C56.9829 29.3698 57.5201 28.8325 57.5201 28.1697C57.5201 27.507 56.9829 26.9697 56.3201 26.9697C55.6574 26.9697 55.1201 27.507 55.1201 28.1697C55.1201 28.8325 55.6574 29.3698 56.3201 29.3698Z" fill="#12362A"/>
<path d="M70.0999 29.3698C70.7626 29.3698 71.2999 28.8325 71.2999 28.1697C71.2999 27.507 70.7626 26.9697 70.0999 26.9697C69.4372 26.9697 68.8999 27.507 68.8999 28.1697C68.8999 28.8325 69.4372 29.3698 70.0999 29.3698Z" fill="#12362A"/>
<path d="M83.8899 29.3698C84.5527 29.3698 85.09 28.8325 85.09 28.1697C85.09 27.507 84.5527 26.9697 83.8899 26.9697C83.2272 26.9697 82.6899 27.507 82.6899 28.1697C82.6899 28.8325 83.2272 29.3698 83.8899 29.3698Z" fill="#12362A"/>
<path d="M97.6702 29.3698C98.333 29.3698 98.8702 28.8325 98.8702 28.1697C98.8702 27.507 98.333 26.9697 97.6702 26.9697C97.0075 26.9697 96.4702 27.507 96.4702 28.1697C96.4702 28.8325 97.0075 29.3698 97.6702 29.3698Z" fill="#12362A"/>
<path d="M112.65 28.1697C112.65 28.8297 112.11 29.3698 111.45 29.3698C110.79 29.3698 110.25 28.8297 110.25 28.1697C110.25 27.5097 110.79 26.9697 111.45 26.9697C112.11 26.9697 112.65 27.4997 112.65 28.1697Z" fill="#12362A"/>
<path d="M125.23 29.3698C125.893 29.3698 126.43 28.8325 126.43 28.1697C126.43 27.507 125.893 26.9697 125.23 26.9697C124.567 26.9697 124.03 27.507 124.03 28.1697C124.03 28.8325 124.567 29.3698 125.23 29.3698Z" fill="#12362A"/>
<path d="M139.01 29.3698C139.673 29.3698 140.21 28.8325 140.21 28.1697C140.21 27.507 139.673 26.9697 139.01 26.9697C138.347 26.9697 137.81 27.507 137.81 28.1697C137.81 28.8325 138.347 29.3698 139.01 29.3698Z" fill="#12362A"/>
<path d="M152.79 29.3698C153.453 29.3698 153.99 28.8325 153.99 28.1697C153.99 27.507 153.453 26.9697 152.79 26.9697C152.127 26.9697 151.59 27.507 151.59 28.1697C151.59 28.8325 152.127 29.3698 152.79 29.3698Z" fill="#12362A"/>
<path d="M166.58 29.3698C167.243 29.3698 167.78 28.8325 167.78 28.1697C167.78 27.507 167.243 26.9697 166.58 26.9697C165.917 26.9697 165.38 27.507 165.38 28.1697C165.38 28.8325 165.917 29.3698 166.58 29.3698Z" fill="#12362A"/>
<path d="M180.36 29.3698C181.023 29.3698 181.56 28.8325 181.56 28.1697C181.56 27.507 181.023 26.9697 180.36 26.9697C179.697 26.9697 179.16 27.507 179.16 28.1697C179.16 28.8325 179.697 29.3698 180.36 29.3698Z" fill="#12362A"/>
<path d="M194.14 29.3698C194.803 29.3698 195.34 28.8325 195.34 28.1697C195.34 27.507 194.803 26.9697 194.14 26.9697C193.477 26.9697 192.94 27.507 192.94 28.1697C192.94 28.8325 193.477 29.3698 194.14 29.3698Z" fill="#12362A"/>
<path d="M207.92 29.3698C208.583 29.3698 209.12 28.8325 209.12 28.1697C209.12 27.507 208.583 26.9697 207.92 26.9697C207.257 26.9697 206.72 27.507 206.72 28.1697C206.72 28.8325 207.257 29.3698 207.92 29.3698Z" fill="#12362A"/>
<path d="M221.7 29.3698C222.363 29.3698 222.9 28.8325 222.9 28.1697C222.9 27.507 222.363 26.9697 221.7 26.9697C221.037 26.9697 220.5 27.507 220.5 28.1697C220.5 28.8325 221.037 29.3698 221.7 29.3698Z" fill="#12362A"/>
<path d="M1.2 42.8502C1.86274 42.8502 2.4 42.3129 2.4 41.6502C2.4 40.9875 1.86274 40.4502 1.2 40.4502C0.537255 40.4502 0 40.9875 0 41.6502C0 42.3129 0.537255 42.8502 1.2 42.8502Z" fill="#12362A"/>
<path d="M14.9798 42.8502C15.6425 42.8502 16.1798 42.3129 16.1798 41.6502C16.1798 40.9875 15.6425 40.4502 14.9798 40.4502C14.317 40.4502 13.7798 40.9875 13.7798 41.6502C13.7798 42.3129 14.317 42.8502 14.9798 42.8502Z" fill="#12362A"/>
<path d="M28.7601 42.8502C29.4228 42.8502 29.9601 42.3129 29.9601 41.6502C29.9601 40.9875 29.4228 40.4502 28.7601 40.4502C28.0973 40.4502 27.5601 40.9875 27.5601 41.6502C27.5601 42.3129 28.0973 42.8502 28.7601 42.8502Z" fill="#12362A"/>
<path d="M42.5398 42.8502C43.2026 42.8502 43.7398 42.3129 43.7398 41.6502C43.7398 40.9875 43.2026 40.4502 42.5398 40.4502C41.8771 40.4502 41.3398 40.9875 41.3398 41.6502C41.3398 42.3129 41.8771 42.8502 42.5398 42.8502Z" fill="#12362A"/>
<path d="M56.3201 42.8502C56.9829 42.8502 57.5201 42.3129 57.5201 41.6502C57.5201 40.9875 56.9829 40.4502 56.3201 40.4502C55.6574 40.4502 55.1201 40.9875 55.1201 41.6502C55.1201 42.3129 55.6574 42.8502 56.3201 42.8502Z" fill="#12362A"/>
<path d="M70.0999 42.8502C70.7626 42.8502 71.2999 42.3129 71.2999 41.6502C71.2999 40.9875 70.7626 40.4502 70.0999 40.4502C69.4372 40.4502 68.8999 40.9875 68.8999 41.6502C68.8999 42.3129 69.4372 42.8502 70.0999 42.8502Z" fill="#12362A"/>
<path d="M83.8899 42.8502C84.5527 42.8502 85.09 42.3129 85.09 41.6502C85.09 40.9875 84.5527 40.4502 83.8899 40.4502C83.2272 40.4502 82.6899 40.9875 82.6899 41.6502C82.6899 42.3129 83.2272 42.8502 83.8899 42.8502Z" fill="#12362A"/>
<path d="M97.6702 42.8502C98.333 42.8502 98.8702 42.3129 98.8702 41.6502C98.8702 40.9875 98.333 40.4502 97.6702 40.4502C97.0075 40.4502 96.4702 40.9875 96.4702 41.6502C96.4702 42.3129 97.0075 42.8502 97.6702 42.8502Z" fill="#12362A"/>
<path d="M112.65 41.6502C112.65 42.3102 112.11 42.8502 111.45 42.8502C110.79 42.8502 110.25 42.3102 110.25 41.6502C110.25 40.9902 110.79 40.4502 111.45 40.4502C112.11 40.4502 112.65 40.9902 112.65 41.6502Z" fill="#12362A"/>
<path d="M125.23 42.8502C125.893 42.8502 126.43 42.3129 126.43 41.6502C126.43 40.9875 125.893 40.4502 125.23 40.4502C124.567 40.4502 124.03 40.9875 124.03 41.6502C124.03 42.3129 124.567 42.8502 125.23 42.8502Z" fill="#12362A"/>
<path d="M139.01 42.8502C139.673 42.8502 140.21 42.3129 140.21 41.6502C140.21 40.9875 139.673 40.4502 139.01 40.4502C138.347 40.4502 137.81 40.9875 137.81 41.6502C137.81 42.3129 138.347 42.8502 139.01 42.8502Z" fill="#12362A"/>
<path d="M152.79 42.8502C153.453 42.8502 153.99 42.3129 153.99 41.6502C153.99 40.9875 153.453 40.4502 152.79 40.4502C152.127 40.4502 151.59 40.9875 151.59 41.6502C151.59 42.3129 152.127 42.8502 152.79 42.8502Z" fill="#12362A"/>
<path d="M166.58 42.8502C167.243 42.8502 167.78 42.3129 167.78 41.6502C167.78 40.9875 167.243 40.4502 166.58 40.4502C165.917 40.4502 165.38 40.9875 165.38 41.6502C165.38 42.3129 165.917 42.8502 166.58 42.8502Z" fill="#12362A"/>
<path d="M180.36 42.8502C181.023 42.8502 181.56 42.3129 181.56 41.6502C181.56 40.9875 181.023 40.4502 180.36 40.4502C179.697 40.4502 179.16 40.9875 179.16 41.6502C179.16 42.3129 179.697 42.8502 180.36 42.8502Z" fill="#12362A"/>
<path d="M194.14 42.8502C194.803 42.8502 195.34 42.3129 195.34 41.6502C195.34 40.9875 194.803 40.4502 194.14 40.4502C193.477 40.4502 192.94 40.9875 192.94 41.6502C192.94 42.3129 193.477 42.8502 194.14 42.8502Z" fill="#12362A"/>
<path d="M207.92 42.8502C208.583 42.8502 209.12 42.3129 209.12 41.6502C209.12 40.9875 208.583 40.4502 207.92 40.4502C207.257 40.4502 206.72 40.9875 206.72 41.6502C206.72 42.3129 207.257 42.8502 207.92 42.8502Z" fill="#12362A"/>
<path d="M221.7 42.8502C222.363 42.8502 222.9 42.3129 222.9 41.6502C222.9 40.9875 222.363 40.4502 221.7 40.4502C221.037 40.4502 220.5 40.9875 220.5 41.6502C220.5 42.3129 221.037 42.8502 221.7 42.8502Z" fill="#12362A"/>
<path d="M1.2 56.3297C1.86274 56.3297 2.4 55.7924 2.4 55.1297C2.4 54.467 1.86274 53.9297 1.2 53.9297C0.537255 53.9297 0 54.467 0 55.1297C0 55.7924 0.537255 56.3297 1.2 56.3297Z" fill="#12362A"/>
<path d="M14.9798 56.3297C15.6425 56.3297 16.1798 55.7924 16.1798 55.1297C16.1798 54.467 15.6425 53.9297 14.9798 53.9297C14.317 53.9297 13.7798 54.467 13.7798 55.1297C13.7798 55.7924 14.317 56.3297 14.9798 56.3297Z" fill="#12362A"/>
<path d="M28.7601 56.3297C29.4228 56.3297 29.9601 55.7924 29.9601 55.1297C29.9601 54.467 29.4228 53.9297 28.7601 53.9297C28.0973 53.9297 27.5601 54.467 27.5601 55.1297C27.5601 55.7924 28.0973 56.3297 28.7601 56.3297Z" fill="#12362A"/>
<path d="M42.5398 56.3297C43.2026 56.3297 43.7398 55.7924 43.7398 55.1297C43.7398 54.467 43.2026 53.9297 42.5398 53.9297C41.8771 53.9297 41.3398 54.467 41.3398 55.1297C41.3398 55.7924 41.8771 56.3297 42.5398 56.3297Z" fill="#12362A"/>
<path d="M56.3201 56.3297C56.9829 56.3297 57.5201 55.7924 57.5201 55.1297C57.5201 54.467 56.9829 53.9297 56.3201 53.9297C55.6574 53.9297 55.1201 54.467 55.1201 55.1297C55.1201 55.7924 55.6574 56.3297 56.3201 56.3297Z" fill="#12362A"/>
<path d="M70.0999 56.3297C70.7626 56.3297 71.2999 55.7924 71.2999 55.1297C71.2999 54.467 70.7626 53.9297 70.0999 53.9297C69.4372 53.9297 68.8999 54.467 68.8999 55.1297C68.8999 55.7924 69.4372 56.3297 70.0999 56.3297Z" fill="#12362A"/>
<path d="M83.8899 56.3297C84.5527 56.3297 85.09 55.7924 85.09 55.1297C85.09 54.467 84.5527 53.9297 83.8899 53.9297C83.2272 53.9297 82.6899 54.467 82.6899 55.1297C82.6899 55.7924 83.2272 56.3297 83.8899 56.3297Z" fill="#12362A"/>
<path d="M97.6702 56.3297C98.333 56.3297 98.8702 55.7924 98.8702 55.1297C98.8702 54.467 98.333 53.9297 97.6702 53.9297C97.0075 53.9297 96.4702 54.467 96.4702 55.1297C96.4702 55.7924 97.0075 56.3297 97.6702 56.3297Z" fill="#12362A"/>
<path d="M112.65 55.1297C112.65 55.7897 112.11 56.3297 111.45 56.3297C110.79 56.3297 110.25 55.7897 110.25 55.1297C110.25 54.4697 110.79 53.9297 111.45 53.9297C112.11 53.9297 112.65 54.4697 112.65 55.1297Z" fill="#12362A"/>
<path d="M125.23 56.3297C125.893 56.3297 126.43 55.7924 126.43 55.1297C126.43 54.467 125.893 53.9297 125.23 53.9297C124.567 53.9297 124.03 54.467 124.03 55.1297C124.03 55.7924 124.567 56.3297 125.23 56.3297Z" fill="#12362A"/>
<path d="M139.01 56.3297C139.673 56.3297 140.21 55.7924 140.21 55.1297C140.21 54.467 139.673 53.9297 139.01 53.9297C138.347 53.9297 137.81 54.467 137.81 55.1297C137.81 55.7924 138.347 56.3297 139.01 56.3297Z" fill="#12362A"/>
<path d="M152.79 56.3297C153.453 56.3297 153.99 55.7924 153.99 55.1297C153.99 54.467 153.453 53.9297 152.79 53.9297C152.127 53.9297 151.59 54.467 151.59 55.1297C151.59 55.7924 152.127 56.3297 152.79 56.3297Z" fill="#12362A"/>
<path d="M166.58 56.3297C167.243 56.3297 167.78 55.7924 167.78 55.1297C167.78 54.467 167.243 53.9297 166.58 53.9297C165.917 53.9297 165.38 54.467 165.38 55.1297C165.38 55.7924 165.917 56.3297 166.58 56.3297Z" fill="#12362A"/>
<path d="M180.36 56.3297C181.023 56.3297 181.56 55.7924 181.56 55.1297C181.56 54.467 181.023 53.9297 180.36 53.9297C179.697 53.9297 179.16 54.467 179.16 55.1297C179.16 55.7924 179.697 56.3297 180.36 56.3297Z" fill="#12362A"/>
<path d="M194.14 56.3297C194.803 56.3297 195.34 55.7924 195.34 55.1297C195.34 54.467 194.803 53.9297 194.14 53.9297C193.477 53.9297 192.94 54.467 192.94 55.1297C192.94 55.7924 193.477 56.3297 194.14 56.3297Z" fill="#12362A"/>
<path d="M207.92 56.3297C208.583 56.3297 209.12 55.7924 209.12 55.1297C209.12 54.467 208.583 53.9297 207.92 53.9297C207.257 53.9297 206.72 54.467 206.72 55.1297C206.72 55.7924 207.257 56.3297 207.92 56.3297Z" fill="#12362A"/>
<path d="M221.7 56.3297C222.363 56.3297 222.9 55.7924 222.9 55.1297C222.9 54.467 222.363 53.9297 221.7 53.9297C221.037 53.9297 220.5 54.467 220.5 55.1297C220.5 55.7924 221.037 56.3297 221.7 56.3297Z" fill="#12362A"/>
<path d="M1.2 69.8101C1.86274 69.8101 2.4 69.2728 2.4 68.6101C2.4 67.9474 1.86274 67.4102 1.2 67.4102C0.537255 67.4102 0 67.9474 0 68.6101C0 69.2728 0.537255 69.8101 1.2 69.8101Z" fill="#12362A"/>
<path d="M14.9798 69.8101C15.6425 69.8101 16.1798 69.2728 16.1798 68.6101C16.1798 67.9474 15.6425 67.4102 14.9798 67.4102C14.317 67.4102 13.7798 67.9474 13.7798 68.6101C13.7798 69.2728 14.317 69.8101 14.9798 69.8101Z" fill="#12362A"/>
<path d="M28.7601 69.8101C29.4228 69.8101 29.9601 69.2728 29.9601 68.6101C29.9601 67.9474 29.4228 67.4102 28.7601 67.4102C28.0973 67.4102 27.5601 67.9474 27.5601 68.6101C27.5601 69.2728 28.0973 69.8101 28.7601 69.8101Z" fill="#12362A"/>
<path d="M42.5398 69.8101C43.2026 69.8101 43.7398 69.2728 43.7398 68.6101C43.7398 67.9474 43.2026 67.4102 42.5398 67.4102C41.8771 67.4102 41.3398 67.9474 41.3398 68.6101C41.3398 69.2728 41.8771 69.8101 42.5398 69.8101Z" fill="#12362A"/>
<path d="M56.3201 69.8101C56.9829 69.8101 57.5201 69.2728 57.5201 68.6101C57.5201 67.9474 56.9829 67.4102 56.3201 67.4102C55.6574 67.4102 55.1201 67.9474 55.1201 68.6101C55.1201 69.2728 55.6574 69.8101 56.3201 69.8101Z" fill="#12362A"/>
<path d="M70.0999 69.8101C70.7626 69.8101 71.2999 69.2728 71.2999 68.6101C71.2999 67.9474 70.7626 67.4102 70.0999 67.4102C69.4372 67.4102 68.8999 67.9474 68.8999 68.6101C68.8999 69.2728 69.4372 69.8101 70.0999 69.8101Z" fill="#12362A"/>
<path d="M83.8899 69.8101C84.5527 69.8101 85.09 69.2728 85.09 68.6101C85.09 67.9474 84.5527 67.4102 83.8899 67.4102C83.2272 67.4102 82.6899 67.9474 82.6899 68.6101C82.6899 69.2728 83.2272 69.8101 83.8899 69.8101Z" fill="#12362A"/>
<path d="M97.6702 69.8101C98.333 69.8101 98.8702 69.2728 98.8702 68.6101C98.8702 67.9474 98.333 67.4102 97.6702 67.4102C97.0075 67.4102 96.4702 67.9474 96.4702 68.6101C96.4702 69.2728 97.0075 69.8101 97.6702 69.8101Z" fill="#12362A"/>
<path d="M112.65 68.6101C112.65 69.2701 112.11 69.8101 111.45 69.8101C110.79 69.8101 110.25 69.2701 110.25 68.6101C110.25 67.9501 110.79 67.4102 111.45 67.4102C112.11 67.4102 112.65 67.9501 112.65 68.6101Z" fill="#12362A"/>
<path d="M125.23 69.8101C125.893 69.8101 126.43 69.2728 126.43 68.6101C126.43 67.9474 125.893 67.4102 125.23 67.4102C124.567 67.4102 124.03 67.9474 124.03 68.6101C124.03 69.2728 124.567 69.8101 125.23 69.8101Z" fill="#12362A"/>
<path d="M139.01 69.8101C139.673 69.8101 140.21 69.2728 140.21 68.6101C140.21 67.9474 139.673 67.4102 139.01 67.4102C138.347 67.4102 137.81 67.9474 137.81 68.6101C137.81 69.2728 138.347 69.8101 139.01 69.8101Z" fill="#12362A"/>
<path d="M152.79 69.8101C153.453 69.8101 153.99 69.2728 153.99 68.6101C153.99 67.9474 153.453 67.4102 152.79 67.4102C152.127 67.4102 151.59 67.9474 151.59 68.6101C151.59 69.2728 152.127 69.8101 152.79 69.8101Z" fill="#12362A"/>
<path d="M166.58 69.8101C167.243 69.8101 167.78 69.2728 167.78 68.6101C167.78 67.9474 167.243 67.4102 166.58 67.4102C165.917 67.4102 165.38 67.9474 165.38 68.6101C165.38 69.2728 165.917 69.8101 166.58 69.8101Z" fill="#12362A"/>
<path d="M180.36 69.8101C181.023 69.8101 181.56 69.2728 181.56 68.6101C181.56 67.9474 181.023 67.4102 180.36 67.4102C179.697 67.4102 179.16 67.9474 179.16 68.6101C179.16 69.2728 179.697 69.8101 180.36 69.8101Z" fill="#12362A"/>
<path d="M194.14 69.8101C194.803 69.8101 195.34 69.2728 195.34 68.6101C195.34 67.9474 194.803 67.4102 194.14 67.4102C193.477 67.4102 192.94 67.9474 192.94 68.6101C192.94 69.2728 193.477 69.8101 194.14 69.8101Z" fill="#12362A"/>
<path d="M207.92 69.8101C208.583 69.8101 209.12 69.2728 209.12 68.6101C209.12 67.9474 208.583 67.4102 207.92 67.4102C207.257 67.4102 206.72 67.9474 206.72 68.6101C206.72 69.2728 207.257 69.8101 207.92 69.8101Z" fill="#12362A"/>
<path d="M221.7 69.8101C222.363 69.8101 222.9 69.2728 222.9 68.6101C222.9 67.9474 222.363 67.4102 221.7 67.4102C221.037 67.4102 220.5 67.9474 220.5 68.6101C220.5 69.2728 221.037 69.8101 221.7 69.8101Z" fill="#12362A"/>
<path d="M1.2 83.2897C1.86274 83.2897 2.4 82.7524 2.4 82.0897C2.4 81.4269 1.86274 80.8896 1.2 80.8896C0.537255 80.8896 0 81.4269 0 82.0897C0 82.7524 0.537255 83.2897 1.2 83.2897Z" fill="#12362A"/>
<path d="M14.9798 83.2897C15.6425 83.2897 16.1798 82.7524 16.1798 82.0897C16.1798 81.4269 15.6425 80.8896 14.9798 80.8896C14.317 80.8896 13.7798 81.4269 13.7798 82.0897C13.7798 82.7524 14.317 83.2897 14.9798 83.2897Z" fill="#12362A"/>
<path d="M28.7601 83.2897C29.4228 83.2897 29.9601 82.7524 29.9601 82.0897C29.9601 81.4269 29.4228 80.8896 28.7601 80.8896C28.0973 80.8896 27.5601 81.4269 27.5601 82.0897C27.5601 82.7524 28.0973 83.2897 28.7601 83.2897Z" fill="#12362A"/>
<path d="M42.5398 83.2897C43.2026 83.2897 43.7398 82.7524 43.7398 82.0897C43.7398 81.4269 43.2026 80.8896 42.5398 80.8896C41.8771 80.8896 41.3398 81.4269 41.3398 82.0897C41.3398 82.7524 41.8771 83.2897 42.5398 83.2897Z" fill="#12362A"/>
<path d="M56.3201 83.2897C56.9829 83.2897 57.5201 82.7524 57.5201 82.0897C57.5201 81.4269 56.9829 80.8896 56.3201 80.8896C55.6574 80.8896 55.1201 81.4269 55.1201 82.0897C55.1201 82.7524 55.6574 83.2897 56.3201 83.2897Z" fill="#12362A"/>
<path d="M70.0999 83.2897C70.7626 83.2897 71.2999 82.7524 71.2999 82.0897C71.2999 81.4269 70.7626 80.8896 70.0999 80.8896C69.4372 80.8896 68.8999 81.4269 68.8999 82.0897C68.8999 82.7524 69.4372 83.2897 70.0999 83.2897Z" fill="#12362A"/>
<path d="M83.8899 83.2897C84.5527 83.2897 85.09 82.7524 85.09 82.0897C85.09 81.4269 84.5527 80.8896 83.8899 80.8896C83.2272 80.8896 82.6899 81.4269 82.6899 82.0897C82.6899 82.7524 83.2272 83.2897 83.8899 83.2897Z" fill="#12362A"/>
<path d="M97.6702 83.2897C98.333 83.2897 98.8702 82.7524 98.8702 82.0897C98.8702 81.4269 98.333 80.8896 97.6702 80.8896C97.0075 80.8896 96.4702 81.4269 96.4702 82.0897C96.4702 82.7524 97.0075 83.2897 97.6702 83.2897Z" fill="#12362A"/>
<path d="M112.65 82.0897C112.65 82.7497 112.11 83.2897 111.45 83.2897C110.79 83.2897 110.25 82.7497 110.25 82.0897C110.25 81.4297 110.79 80.8896 111.45 80.8896C112.11 80.8996 112.65 81.4297 112.65 82.0897Z" fill="#12362A"/>
<path d="M125.23 83.2897C125.893 83.2897 126.43 82.7524 126.43 82.0897C126.43 81.4269 125.893 80.8896 125.23 80.8896C124.567 80.8896 124.03 81.4269 124.03 82.0897C124.03 82.7524 124.567 83.2897 125.23 83.2897Z" fill="#12362A"/>
<path d="M139.01 83.2897C139.673 83.2897 140.21 82.7524 140.21 82.0897C140.21 81.4269 139.673 80.8896 139.01 80.8896C138.347 80.8896 137.81 81.4269 137.81 82.0897C137.81 82.7524 138.347 83.2897 139.01 83.2897Z" fill="#12362A"/>
<path d="M152.79 83.2897C153.453 83.2897 153.99 82.7524 153.99 82.0897C153.99 81.4269 153.453 80.8896 152.79 80.8896C152.127 80.8896 151.59 81.4269 151.59 82.0897C151.59 82.7524 152.127 83.2897 152.79 83.2897Z" fill="#12362A"/>
<path d="M166.58 83.2897C167.243 83.2897 167.78 82.7524 167.78 82.0897C167.78 81.4269 167.243 80.8896 166.58 80.8896C165.917 80.8896 165.38 81.4269 165.38 82.0897C165.38 82.7524 165.917 83.2897 166.58 83.2897Z" fill="#12362A"/>
<path d="M180.36 83.2897C181.023 83.2897 181.56 82.7524 181.56 82.0897C181.56 81.4269 181.023 80.8896 180.36 80.8896C179.697 80.8896 179.16 81.4269 179.16 82.0897C179.16 82.7524 179.697 83.2897 180.36 83.2897Z" fill="#12362A"/>
<path d="M194.14 83.2897C194.803 83.2897 195.34 82.7524 195.34 82.0897C195.34 81.4269 194.803 80.8896 194.14 80.8896C193.477 80.8896 192.94 81.4269 192.94 82.0897C192.94 82.7524 193.477 83.2897 194.14 83.2897Z" fill="#12362A"/>
<path d="M207.92 83.2897C208.583 83.2897 209.12 82.7524 209.12 82.0897C209.12 81.4269 208.583 80.8896 207.92 80.8896C207.257 80.8896 206.72 81.4269 206.72 82.0897C206.72 82.7524 207.257 83.2897 207.92 83.2897Z" fill="#12362A"/>
<path d="M221.7 83.2897C222.363 83.2897 222.9 82.7524 222.9 82.0897C222.9 81.4269 222.363 80.8896 221.7 80.8896C221.037 80.8896 220.5 81.4269 220.5 82.0897C220.5 82.7524 221.037 83.2897 221.7 83.2897Z" fill="#12362A"/>
<path d="M2.4 95.5799C2.4 96.2399 1.86 96.7799 1.2 96.7799C0.539997 96.7799 0 96.2399 0 95.5799C0 94.9199 0.539997 94.3799 1.2 94.3799C1.86 94.3799 2.4 94.9099 2.4 95.5799Z" fill="#12362A"/>
<path d="M16.1798 95.5799C16.1798 96.2399 15.6398 96.7799 14.9798 96.7799C14.3198 96.7799 13.7798 96.2399 13.7798 95.5799C13.7798 94.9199 14.3198 94.3799 14.9798 94.3799C15.6398 94.3799 16.1798 94.9099 16.1798 95.5799Z" fill="#12362A"/>
<path d="M29.9601 95.5799C29.9601 96.2399 29.4201 96.7799 28.7601 96.7799C28.1001 96.7799 27.5601 96.2399 27.5601 95.5799C27.5601 94.9199 28.1001 94.3799 28.7601 94.3799C29.4201 94.3799 29.9601 94.9099 29.9601 95.5799Z" fill="#12362A"/>
<path d="M43.7398 95.5799C43.7398 96.2399 43.1998 96.7799 42.5398 96.7799C41.8798 96.7799 41.3398 96.2399 41.3398 95.5799C41.3398 94.9199 41.8798 94.3799 42.5398 94.3799C43.1998 94.3799 43.7398 94.9099 43.7398 95.5799Z" fill="#12362A"/>
<path d="M57.5201 95.5799C57.5201 96.2399 56.9801 96.7799 56.3201 96.7799C55.6601 96.7799 55.1201 96.2399 55.1201 95.5799C55.1201 94.9199 55.6601 94.3799 56.3201 94.3799C56.9801 94.3799 57.5201 94.9099 57.5201 95.5799Z" fill="#12362A"/>
<path d="M71.2999 95.5799C71.2999 96.2399 70.7599 96.7799 70.0999 96.7799C69.4399 96.7799 68.8999 96.2399 68.8999 95.5799C68.8999 94.9199 69.4399 94.3799 70.0999 94.3799C70.7699 94.3799 71.2999 94.9099 71.2999 95.5799Z" fill="#12362A"/>
<path d="M85.0802 95.5799C85.0802 96.2399 84.5402 96.7799 83.8802 96.7799C83.2202 96.7799 82.6802 96.2399 82.6802 95.5799C82.6802 94.9199 83.2202 94.3799 83.8802 94.3799C84.5502 94.3799 85.0802 94.9099 85.0802 95.5799Z" fill="#12362A"/>
<path d="M98.8702 95.5799C98.8702 96.2399 98.3302 96.7799 97.6702 96.7799C97.0102 96.7799 96.4702 96.2399 96.4702 95.5799C96.4702 94.9199 97.0102 94.3799 97.6702 94.3799C98.3302 94.3799 98.8702 94.9099 98.8702 95.5799Z" fill="#12362A"/>
<path d="M112.65 95.5799C112.65 96.2399 112.11 96.7799 111.45 96.7799C110.79 96.7799 110.25 96.2399 110.25 95.5799C110.25 94.9199 110.79 94.3799 111.45 94.3799C112.11 94.3799 112.65 94.9099 112.65 95.5799Z" fill="#12362A"/>
<path d="M126.43 95.5799C126.43 96.2399 125.89 96.7799 125.23 96.7799C124.57 96.7799 124.03 96.2399 124.03 95.5799C124.03 94.9199 124.57 94.3799 125.23 94.3799C125.89 94.3799 126.43 94.9099 126.43 95.5799Z" fill="#12362A"/>
<path d="M140.21 95.5799C140.21 96.2399 139.67 96.7799 139.01 96.7799C138.35 96.7799 137.81 96.2399 137.81 95.5799C137.81 94.9199 138.35 94.3799 139.01 94.3799C139.67 94.3799 140.21 94.9099 140.21 95.5799Z" fill="#12362A"/>
<path d="M153.99 95.5799C153.99 96.2399 153.45 96.7799 152.79 96.7799C152.13 96.7799 151.59 96.2399 151.59 95.5799C151.59 94.9199 152.13 94.3799 152.79 94.3799C153.46 94.3799 153.99 94.9099 153.99 95.5799Z" fill="#12362A"/>
<path d="M167.77 95.5799C167.77 96.2399 167.23 96.7799 166.57 96.7799C165.91 96.7799 165.37 96.2399 165.37 95.5799C165.37 94.9199 165.91 94.3799 166.57 94.3799C167.24 94.3799 167.77 94.9099 167.77 95.5799Z" fill="#12362A"/>
<path d="M181.56 95.5799C181.56 96.2399 181.02 96.7799 180.36 96.7799C179.7 96.7799 179.16 96.2399 179.16 95.5799C179.16 94.9199 179.7 94.3799 180.36 94.3799C181.02 94.3799 181.56 94.9099 181.56 95.5799Z" fill="#12362A"/>
<path d="M195.34 95.5799C195.34 96.2399 194.8 96.7799 194.14 96.7799C193.48 96.7799 192.94 96.2399 192.94 95.5799C192.94 94.9199 193.48 94.3799 194.14 94.3799C194.8 94.3799 195.34 94.9099 195.34 95.5799Z" fill="#12362A"/>
<path d="M209.12 95.5799C209.12 96.2399 208.58 96.7799 207.92 96.7799C207.26 96.7799 206.72 96.2399 206.72 95.5799C206.72 94.9199 207.26 94.3799 207.92 94.3799C208.58 94.3799 209.12 94.9099 209.12 95.5799Z" fill="#12362A"/>
<path d="M222.9 95.5799C222.9 96.2399 222.36 96.7799 221.7 96.7799C221.04 96.7799 220.5 96.2399 220.5 95.5799C220.5 94.9199 221.04 94.3799 221.7 94.3799C222.36 94.3799 222.9 94.9099 222.9 95.5799Z" fill="#12362A"/>
<path d="M1.2 110.26C1.86274 110.26 2.4 109.723 2.4 109.06C2.4 108.398 1.86274 107.86 1.2 107.86C0.537255 107.86 0 108.398 0 109.06C0 109.723 0.537255 110.26 1.2 110.26Z" fill="#12362A"/>
<path d="M14.9798 110.26C15.6425 110.26 16.1798 109.723 16.1798 109.06C16.1798 108.398 15.6425 107.86 14.9798 107.86C14.317 107.86 13.7798 108.398 13.7798 109.06C13.7798 109.723 14.317 110.26 14.9798 110.26Z" fill="#12362A"/>
<path d="M28.7601 110.26C29.4228 110.26 29.9601 109.723 29.9601 109.06C29.9601 108.398 29.4228 107.86 28.7601 107.86C28.0973 107.86 27.5601 108.398 27.5601 109.06C27.5601 109.723 28.0973 110.26 28.7601 110.26Z" fill="#12362A"/>
<path d="M42.5398 110.26C43.2026 110.26 43.7398 109.723 43.7398 109.06C43.7398 108.398 43.2026 107.86 42.5398 107.86C41.8771 107.86 41.3398 108.398 41.3398 109.06C41.3398 109.723 41.8771 110.26 42.5398 110.26Z" fill="#12362A"/>
<path d="M56.3201 110.26C56.9829 110.26 57.5201 109.723 57.5201 109.06C57.5201 108.398 56.9829 107.86 56.3201 107.86C55.6574 107.86 55.1201 108.398 55.1201 109.06C55.1201 109.723 55.6574 110.26 56.3201 110.26Z" fill="#12362A"/>
<path d="M70.0999 110.26C70.7626 110.26 71.2999 109.723 71.2999 109.06C71.2999 108.398 70.7626 107.86 70.0999 107.86C69.4372 107.86 68.8999 108.398 68.8999 109.06C68.8999 109.723 69.4372 110.26 70.0999 110.26Z" fill="#12362A"/>
<path d="M83.8899 110.26C84.5527 110.26 85.09 109.723 85.09 109.06C85.09 108.398 84.5527 107.86 83.8899 107.86C83.2272 107.86 82.6899 108.398 82.6899 109.06C82.6899 109.723 83.2272 110.26 83.8899 110.26Z" fill="#12362A"/>
<path d="M97.6702 110.26C98.333 110.26 98.8702 109.723 98.8702 109.06C98.8702 108.398 98.333 107.86 97.6702 107.86C97.0075 107.86 96.4702 108.398 96.4702 109.06C96.4702 109.723 97.0075 110.26 97.6702 110.26Z" fill="#12362A"/>
<path d="M112.65 109.06C112.65 109.72 112.11 110.26 111.45 110.26C110.79 110.26 110.25 109.72 110.25 109.06C110.25 108.4 110.79 107.86 111.45 107.86C112.11 107.86 112.65 108.4 112.65 109.06Z" fill="#12362A"/>
<path d="M125.23 110.26C125.893 110.26 126.43 109.723 126.43 109.06C126.43 108.398 125.893 107.86 125.23 107.86C124.567 107.86 124.03 108.398 124.03 109.06C124.03 109.723 124.567 110.26 125.23 110.26Z" fill="#12362A"/>
<path d="M139.01 110.26C139.673 110.26 140.21 109.723 140.21 109.06C140.21 108.398 139.673 107.86 139.01 107.86C138.347 107.86 137.81 108.398 137.81 109.06C137.81 109.723 138.347 110.26 139.01 110.26Z" fill="#12362A"/>
<path d="M152.79 110.26C153.453 110.26 153.99 109.723 153.99 109.06C153.99 108.398 153.453 107.86 152.79 107.86C152.127 107.86 151.59 108.398 151.59 109.06C151.59 109.723 152.127 110.26 152.79 110.26Z" fill="#12362A"/>
<path d="M166.58 110.26C167.243 110.26 167.78 109.723 167.78 109.06C167.78 108.398 167.243 107.86 166.58 107.86C165.917 107.86 165.38 108.398 165.38 109.06C165.38 109.723 165.917 110.26 166.58 110.26Z" fill="#12362A"/>
<path d="M180.36 110.26C181.023 110.26 181.56 109.723 181.56 109.06C181.56 108.398 181.023 107.86 180.36 107.86C179.697 107.86 179.16 108.398 179.16 109.06C179.16 109.723 179.697 110.26 180.36 110.26Z" fill="#12362A"/>
<path d="M194.14 110.26C194.803 110.26 195.34 109.723 195.34 109.06C195.34 108.398 194.803 107.86 194.14 107.86C193.477 107.86 192.94 108.398 192.94 109.06C192.94 109.723 193.477 110.26 194.14 110.26Z" fill="#12362A"/>
<path d="M207.92 110.26C208.583 110.26 209.12 109.723 209.12 109.06C209.12 108.398 208.583 107.86 207.92 107.86C207.257 107.86 206.72 108.398 206.72 109.06C206.72 109.723 207.257 110.26 207.92 110.26Z" fill="#12362A"/>
<path d="M221.7 110.26C222.363 110.26 222.9 109.723 222.9 109.06C222.9 108.398 222.363 107.86 221.7 107.86C221.037 107.86 220.5 108.398 220.5 109.06C220.5 109.723 221.037 110.26 221.7 110.26Z" fill="#12362A"/>
<path d="M1.2 123.74C1.86274 123.74 2.4 123.203 2.4 122.54C2.4 121.877 1.86274 121.34 1.2 121.34C0.537255 121.34 0 121.877 0 122.54C0 123.203 0.537255 123.74 1.2 123.74Z" fill="#12362A"/>
<path d="M14.9798 123.74C15.6425 123.74 16.1798 123.203 16.1798 122.54C16.1798 121.877 15.6425 121.34 14.9798 121.34C14.317 121.34 13.7798 121.877 13.7798 122.54C13.7798 123.203 14.317 123.74 14.9798 123.74Z" fill="#12362A"/>
<path d="M28.7601 123.74C29.4228 123.74 29.9601 123.203 29.9601 122.54C29.9601 121.877 29.4228 121.34 28.7601 121.34C28.0973 121.34 27.5601 121.877 27.5601 122.54C27.5601 123.203 28.0973 123.74 28.7601 123.74Z" fill="#12362A"/>
<path d="M42.5398 123.74C43.2026 123.74 43.7398 123.203 43.7398 122.54C43.7398 121.877 43.2026 121.34 42.5398 121.34C41.8771 121.34 41.3398 121.877 41.3398 122.54C41.3398 123.203 41.8771 123.74 42.5398 123.74Z" fill="#12362A"/>
<path d="M56.3201 123.74C56.9829 123.74 57.5201 123.203 57.5201 122.54C57.5201 121.877 56.9829 121.34 56.3201 121.34C55.6574 121.34 55.1201 121.877 55.1201 122.54C55.1201 123.203 55.6574 123.74 56.3201 123.74Z" fill="#12362A"/>
<path d="M70.0999 123.74C70.7626 123.74 71.2999 123.203 71.2999 122.54C71.2999 121.877 70.7626 121.34 70.0999 121.34C69.4372 121.34 68.8999 121.877 68.8999 122.54C68.8999 123.203 69.4372 123.74 70.0999 123.74Z" fill="#12362A"/>
<path d="M83.8899 123.74C84.5527 123.74 85.09 123.203 85.09 122.54C85.09 121.877 84.5527 121.34 83.8899 121.34C83.2272 121.34 82.6899 121.877 82.6899 122.54C82.6899 123.203 83.2272 123.74 83.8899 123.74Z" fill="#12362A"/>
<path d="M97.6702 123.74C98.333 123.74 98.8702 123.203 98.8702 122.54C98.8702 121.877 98.333 121.34 97.6702 121.34C97.0075 121.34 96.4702 121.877 96.4702 122.54C96.4702 123.203 97.0075 123.74 97.6702 123.74Z" fill="#12362A"/>
<path d="M112.65 122.54C112.65 123.2 112.11 123.74 111.45 123.74C110.79 123.74 110.25 123.2 110.25 122.54C110.25 121.88 110.79 121.34 111.45 121.34C112.11 121.34 112.65 121.88 112.65 122.54Z" fill="#12362A"/>
<path d="M125.23 123.74C125.893 123.74 126.43 123.203 126.43 122.54C126.43 121.877 125.893 121.34 125.23 121.34C124.567 121.34 124.03 121.877 124.03 122.54C124.03 123.203 124.567 123.74 125.23 123.74Z" fill="#12362A"/>
<path d="M139.01 123.74C139.673 123.74 140.21 123.203 140.21 122.54C140.21 121.877 139.673 121.34 139.01 121.34C138.347 121.34 137.81 121.877 137.81 122.54C137.81 123.203 138.347 123.74 139.01 123.74Z" fill="#12362A"/>
<path d="M152.79 123.74C153.453 123.74 153.99 123.203 153.99 122.54C153.99 121.877 153.453 121.34 152.79 121.34C152.127 121.34 151.59 121.877 151.59 122.54C151.59 123.203 152.127 123.74 152.79 123.74Z" fill="#12362A"/>
<path d="M166.58 123.74C167.243 123.74 167.78 123.203 167.78 122.54C167.78 121.877 167.243 121.34 166.58 121.34C165.917 121.34 165.38 121.877 165.38 122.54C165.38 123.203 165.917 123.74 166.58 123.74Z" fill="#12362A"/>
<path d="M180.36 123.74C181.023 123.74 181.56 123.203 181.56 122.54C181.56 121.877 181.023 121.34 180.36 121.34C179.697 121.34 179.16 121.877 179.16 122.54C179.16 123.203 179.697 123.74 180.36 123.74Z" fill="#12362A"/>
<path d="M194.14 123.74C194.803 123.74 195.34 123.203 195.34 122.54C195.34 121.877 194.803 121.34 194.14 121.34C193.477 121.34 192.94 121.877 192.94 122.54C192.94 123.203 193.477 123.74 194.14 123.74Z" fill="#12362A"/>
<path d="M207.92 123.74C208.583 123.74 209.12 123.203 209.12 122.54C209.12 121.877 208.583 121.34 207.92 121.34C207.257 121.34 206.72 121.877 206.72 122.54C206.72 123.203 207.257 123.74 207.92 123.74Z" fill="#12362A"/>
<path d="M221.7 123.74C222.363 123.74 222.9 123.203 222.9 122.54C222.9 121.877 222.363 121.34 221.7 121.34C221.037 121.34 220.5 121.877 220.5 122.54C220.5 123.203 221.037 123.74 221.7 123.74Z" fill="#12362A"/>
<path d="M1.2 137.22C1.86274 137.22 2.4 136.683 2.4 136.02C2.4 135.358 1.86274 134.82 1.2 134.82C0.537255 134.82 0 135.358 0 136.02C0 136.683 0.537255 137.22 1.2 137.22Z" fill="#12362A"/>
<path d="M14.9798 137.22C15.6425 137.22 16.1798 136.683 16.1798 136.02C16.1798 135.358 15.6425 134.82 14.9798 134.82C14.317 134.82 13.7798 135.358 13.7798 136.02C13.7798 136.683 14.317 137.22 14.9798 137.22Z" fill="#12362A"/>
<path d="M28.7601 137.22C29.4228 137.22 29.9601 136.683 29.9601 136.02C29.9601 135.358 29.4228 134.82 28.7601 134.82C28.0973 134.82 27.5601 135.358 27.5601 136.02C27.5601 136.683 28.0973 137.22 28.7601 137.22Z" fill="#12362A"/>
<path d="M42.5398 137.22C43.2026 137.22 43.7398 136.683 43.7398 136.02C43.7398 135.358 43.2026 134.82 42.5398 134.82C41.8771 134.82 41.3398 135.358 41.3398 136.02C41.3398 136.683 41.8771 137.22 42.5398 137.22Z" fill="#12362A"/>
<path d="M56.3201 137.22C56.9829 137.22 57.5201 136.683 57.5201 136.02C57.5201 135.358 56.9829 134.82 56.3201 134.82C55.6574 134.82 55.1201 135.358 55.1201 136.02C55.1201 136.683 55.6574 137.22 56.3201 137.22Z" fill="#12362A"/>
<path d="M70.0999 137.22C70.7626 137.22 71.2999 136.683 71.2999 136.02C71.2999 135.358 70.7626 134.82 70.0999 134.82C69.4372 134.82 68.8999 135.358 68.8999 136.02C68.8999 136.683 69.4372 137.22 70.0999 137.22Z" fill="#12362A"/>
<path d="M83.8899 137.22C84.5527 137.22 85.09 136.683 85.09 136.02C85.09 135.358 84.5527 134.82 83.8899 134.82C83.2272 134.82 82.6899 135.358 82.6899 136.02C82.6899 136.683 83.2272 137.22 83.8899 137.22Z" fill="#12362A"/>
<path d="M97.6702 137.22C98.333 137.22 98.8702 136.683 98.8702 136.02C98.8702 135.358 98.333 134.82 97.6702 134.82C97.0075 134.82 96.4702 135.358 96.4702 136.02C96.4702 136.683 97.0075 137.22 97.6702 137.22Z" fill="#12362A"/>
<path d="M112.65 136.02C112.65 136.68 112.11 137.22 111.45 137.22C110.79 137.22 110.25 136.68 110.25 136.02C110.25 135.36 110.79 134.82 111.45 134.82C112.11 134.82 112.65 135.36 112.65 136.02Z" fill="#12362A"/>
<path d="M125.23 137.22C125.893 137.22 126.43 136.683 126.43 136.02C126.43 135.358 125.893 134.82 125.23 134.82C124.567 134.82 124.03 135.358 124.03 136.02C124.03 136.683 124.567 137.22 125.23 137.22Z" fill="#12362A"/>
<path d="M139.01 137.22C139.673 137.22 140.21 136.683 140.21 136.02C140.21 135.358 139.673 134.82 139.01 134.82C138.347 134.82 137.81 135.358 137.81 136.02C137.81 136.683 138.347 137.22 139.01 137.22Z" fill="#12362A"/>
<path d="M152.79 137.22C153.453 137.22 153.99 136.683 153.99 136.02C153.99 135.358 153.453 134.82 152.79 134.82C152.127 134.82 151.59 135.358 151.59 136.02C151.59 136.683 152.127 137.22 152.79 137.22Z" fill="#12362A"/>
<path d="M166.58 137.22C167.243 137.22 167.78 136.683 167.78 136.02C167.78 135.358 167.243 134.82 166.58 134.82C165.917 134.82 165.38 135.358 165.38 136.02C165.38 136.683 165.917 137.22 166.58 137.22Z" fill="#12362A"/>
<path d="M180.36 137.22C181.023 137.22 181.56 136.683 181.56 136.02C181.56 135.358 181.023 134.82 180.36 134.82C179.697 134.82 179.16 135.358 179.16 136.02C179.16 136.683 179.697 137.22 180.36 137.22Z" fill="#12362A"/>
<path d="M194.14 137.22C194.803 137.22 195.34 136.683 195.34 136.02C195.34 135.358 194.803 134.82 194.14 134.82C193.477 134.82 192.94 135.358 192.94 136.02C192.94 136.683 193.477 137.22 194.14 137.22Z" fill="#12362A"/>
<path d="M207.92 137.22C208.583 137.22 209.12 136.683 209.12 136.02C209.12 135.358 208.583 134.82 207.92 134.82C207.257 134.82 206.72 135.358 206.72 136.02C206.72 136.683 207.257 137.22 207.92 137.22Z" fill="#12362A"/>
<path d="M221.7 137.22C222.363 137.22 222.9 136.683 222.9 136.02C222.9 135.358 222.363 134.82 221.7 134.82C221.037 134.82 220.5 135.358 220.5 136.02C220.5 136.683 221.037 137.22 221.7 137.22Z" fill="#12362A"/>
<path d="M1.2 150.7C1.86274 150.7 2.4 150.163 2.4 149.5C2.4 148.837 1.86274 148.3 1.2 148.3C0.537255 148.3 0 148.837 0 149.5C0 150.163 0.537255 150.7 1.2 150.7Z" fill="#12362A"/>
<path d="M14.9798 150.7C15.6425 150.7 16.1798 150.163 16.1798 149.5C16.1798 148.837 15.6425 148.3 14.9798 148.3C14.317 148.3 13.7798 148.837 13.7798 149.5C13.7798 150.163 14.317 150.7 14.9798 150.7Z" fill="#12362A"/>
<path d="M28.7601 150.7C29.4228 150.7 29.9601 150.163 29.9601 149.5C29.9601 148.837 29.4228 148.3 28.7601 148.3C28.0973 148.3 27.5601 148.837 27.5601 149.5C27.5601 150.163 28.0973 150.7 28.7601 150.7Z" fill="#12362A"/>
<path d="M42.5398 150.7C43.2026 150.7 43.7398 150.163 43.7398 149.5C43.7398 148.837 43.2026 148.3 42.5398 148.3C41.8771 148.3 41.3398 148.837 41.3398 149.5C41.3398 150.163 41.8771 150.7 42.5398 150.7Z" fill="#12362A"/>
<path d="M56.3201 150.7C56.9829 150.7 57.5201 150.163 57.5201 149.5C57.5201 148.837 56.9829 148.3 56.3201 148.3C55.6574 148.3 55.1201 148.837 55.1201 149.5C55.1201 150.163 55.6574 150.7 56.3201 150.7Z" fill="#12362A"/>
<path d="M70.0999 150.7C70.7626 150.7 71.2999 150.163 71.2999 149.5C71.2999 148.837 70.7626 148.3 70.0999 148.3C69.4372 148.3 68.8999 148.837 68.8999 149.5C68.8999 150.163 69.4372 150.7 70.0999 150.7Z" fill="#12362A"/>
<path d="M83.8899 150.7C84.5527 150.7 85.09 150.163 85.09 149.5C85.09 148.837 84.5527 148.3 83.8899 148.3C83.2272 148.3 82.6899 148.837 82.6899 149.5C82.6899 150.163 83.2272 150.7 83.8899 150.7Z" fill="#12362A"/>
<path d="M97.6702 150.7C98.333 150.7 98.8702 150.163 98.8702 149.5C98.8702 148.837 98.333 148.3 97.6702 148.3C97.0075 148.3 96.4702 148.837 96.4702 149.5C96.4702 150.163 97.0075 150.7 97.6702 150.7Z" fill="#12362A"/>
<path d="M112.65 149.5C112.65 150.16 112.11 150.7 111.45 150.7C110.79 150.7 110.25 150.16 110.25 149.5C110.25 148.84 110.79 148.3 111.45 148.3C112.11 148.31 112.65 148.84 112.65 149.5Z" fill="#12362A"/>
<path d="M125.23 150.7C125.893 150.7 126.43 150.163 126.43 149.5C126.43 148.837 125.893 148.3 125.23 148.3C124.567 148.3 124.03 148.837 124.03 149.5C124.03 150.163 124.567 150.7 125.23 150.7Z" fill="#12362A"/>
<path d="M139.01 150.7C139.673 150.7 140.21 150.163 140.21 149.5C140.21 148.837 139.673 148.3 139.01 148.3C138.347 148.3 137.81 148.837 137.81 149.5C137.81 150.163 138.347 150.7 139.01 150.7Z" fill="#12362A"/>
<path d="M152.79 150.7C153.453 150.7 153.99 150.163 153.99 149.5C153.99 148.837 153.453 148.3 152.79 148.3C152.127 148.3 151.59 148.837 151.59 149.5C151.59 150.163 152.127 150.7 152.79 150.7Z" fill="#12362A"/>
<path d="M166.58 150.7C167.243 150.7 167.78 150.163 167.78 149.5C167.78 148.837 167.243 148.3 166.58 148.3C165.917 148.3 165.38 148.837 165.38 149.5C165.38 150.163 165.917 150.7 166.58 150.7Z" fill="#12362A"/>
<path d="M180.36 150.7C181.023 150.7 181.56 150.163 181.56 149.5C181.56 148.837 181.023 148.3 180.36 148.3C179.697 148.3 179.16 148.837 179.16 149.5C179.16 150.163 179.697 150.7 180.36 150.7Z" fill="#12362A"/>
<path d="M194.14 150.7C194.803 150.7 195.34 150.163 195.34 149.5C195.34 148.837 194.803 148.3 194.14 148.3C193.477 148.3 192.94 148.837 192.94 149.5C192.94 150.163 193.477 150.7 194.14 150.7Z" fill="#12362A"/>
<path d="M207.92 150.7C208.583 150.7 209.12 150.163 209.12 149.5C209.12 148.837 208.583 148.3 207.92 148.3C207.257 148.3 206.72 148.837 206.72 149.5C206.72 150.163 207.257 150.7 207.92 150.7Z" fill="#12362A"/>
<path d="M221.7 150.7C222.363 150.7 222.9 150.163 222.9 149.5C222.9 148.837 222.363 148.3 221.7 148.3C221.037 148.3 220.5 148.837 220.5 149.5C220.5 150.163 221.037 150.7 221.7 150.7Z" fill="#12362A"/>
<path d="M1.2 164.19C1.86274 164.19 2.4 163.653 2.4 162.99C2.4 162.327 1.86274 161.79 1.2 161.79C0.537255 161.79 0 162.327 0 162.99C0 163.653 0.537255 164.19 1.2 164.19Z" fill="#12362A"/>
<path d="M14.9798 164.19C15.6425 164.19 16.1798 163.653 16.1798 162.99C16.1798 162.327 15.6425 161.79 14.9798 161.79C14.317 161.79 13.7798 162.327 13.7798 162.99C13.7798 163.653 14.317 164.19 14.9798 164.19Z" fill="#12362A"/>
<path d="M28.7601 164.19C29.4228 164.19 29.9601 163.653 29.9601 162.99C29.9601 162.327 29.4228 161.79 28.7601 161.79C28.0973 161.79 27.5601 162.327 27.5601 162.99C27.5601 163.653 28.0973 164.19 28.7601 164.19Z" fill="#12362A"/>
<path d="M42.5398 164.19C43.2026 164.19 43.7398 163.653 43.7398 162.99C43.7398 162.327 43.2026 161.79 42.5398 161.79C41.8771 161.79 41.3398 162.327 41.3398 162.99C41.3398 163.653 41.8771 164.19 42.5398 164.19Z" fill="#12362A"/>
<path d="M56.3201 164.19C56.9829 164.19 57.5201 163.653 57.5201 162.99C57.5201 162.327 56.9829 161.79 56.3201 161.79C55.6574 161.79 55.1201 162.327 55.1201 162.99C55.1201 163.653 55.6574 164.19 56.3201 164.19Z" fill="#12362A"/>
<path d="M70.0999 164.19C70.7626 164.19 71.2999 163.653 71.2999 162.99C71.2999 162.327 70.7626 161.79 70.0999 161.79C69.4372 161.79 68.8999 162.327 68.8999 162.99C68.8999 163.653 69.4372 164.19 70.0999 164.19Z" fill="#12362A"/>
<path d="M83.8899 164.19C84.5527 164.19 85.09 163.653 85.09 162.99C85.09 162.327 84.5527 161.79 83.8899 161.79C83.2272 161.79 82.6899 162.327 82.6899 162.99C82.6899 163.653 83.2272 164.19 83.8899 164.19Z" fill="#12362A"/>
<path d="M97.6702 164.19C98.333 164.19 98.8702 163.653 98.8702 162.99C98.8702 162.327 98.333 161.79 97.6702 161.79C97.0075 161.79 96.4702 162.327 96.4702 162.99C96.4702 163.653 97.0075 164.19 97.6702 164.19Z" fill="#12362A"/>
<path d="M112.65 162.99C112.65 163.65 112.11 164.19 111.45 164.19C110.79 164.19 110.25 163.65 110.25 162.99C110.25 162.33 110.79 161.79 111.45 161.79C112.11 161.79 112.65 162.32 112.65 162.99Z" fill="#12362A"/>
<path d="M125.23 164.19C125.893 164.19 126.43 163.653 126.43 162.99C126.43 162.327 125.893 161.79 125.23 161.79C124.567 161.79 124.03 162.327 124.03 162.99C124.03 163.653 124.567 164.19 125.23 164.19Z" fill="#12362A"/>
<path d="M139.01 164.19C139.673 164.19 140.21 163.653 140.21 162.99C140.21 162.327 139.673 161.79 139.01 161.79C138.347 161.79 137.81 162.327 137.81 162.99C137.81 163.653 138.347 164.19 139.01 164.19Z" fill="#12362A"/>
<path d="M152.79 164.19C153.453 164.19 153.99 163.653 153.99 162.99C153.99 162.327 153.453 161.79 152.79 161.79C152.127 161.79 151.59 162.327 151.59 162.99C151.59 163.653 152.127 164.19 152.79 164.19Z" fill="#12362A"/>
<path d="M166.58 164.19C167.243 164.19 167.78 163.653 167.78 162.99C167.78 162.327 167.243 161.79 166.58 161.79C165.917 161.79 165.38 162.327 165.38 162.99C165.38 163.653 165.917 164.19 166.58 164.19Z" fill="#12362A"/>
<path d="M180.36 164.19C181.023 164.19 181.56 163.653 181.56 162.99C181.56 162.327 181.023 161.79 180.36 161.79C179.697 161.79 179.16 162.327 179.16 162.99C179.16 163.653 179.697 164.19 180.36 164.19Z" fill="#12362A"/>
<path d="M194.14 164.19C194.803 164.19 195.34 163.653 195.34 162.99C195.34 162.327 194.803 161.79 194.14 161.79C193.477 161.79 192.94 162.327 192.94 162.99C192.94 163.653 193.477 164.19 194.14 164.19Z" fill="#12362A"/>
<path d="M207.92 164.19C208.583 164.19 209.12 163.653 209.12 162.99C209.12 162.327 208.583 161.79 207.92 161.79C207.257 161.79 206.72 162.327 206.72 162.99C206.72 163.653 207.257 164.19 207.92 164.19Z" fill="#12362A"/>
<path d="M221.7 164.19C222.363 164.19 222.9 163.653 222.9 162.99C222.9 162.327 222.363 161.79 221.7 161.79C221.037 161.79 220.5 162.327 220.5 162.99C220.5 163.653 221.037 164.19 221.7 164.19Z" fill="#12362A"/>
<path d="M1.2 177.669C1.86274 177.669 2.4 177.132 2.4 176.47C2.4 175.807 1.86274 175.27 1.2 175.27C0.537255 175.27 0 175.807 0 176.47C0 177.132 0.537255 177.669 1.2 177.669Z" fill="#12362A"/>
<path d="M14.9798 177.669C15.6425 177.669 16.1798 177.132 16.1798 176.47C16.1798 175.807 15.6425 175.27 14.9798 175.27C14.317 175.27 13.7798 175.807 13.7798 176.47C13.7798 177.132 14.317 177.669 14.9798 177.669Z" fill="#12362A"/>
<path d="M28.7601 177.669C29.4228 177.669 29.9601 177.132 29.9601 176.47C29.9601 175.807 29.4228 175.27 28.7601 175.27C28.0973 175.27 27.5601 175.807 27.5601 176.47C27.5601 177.132 28.0973 177.669 28.7601 177.669Z" fill="#12362A"/>
<path d="M42.5398 177.669C43.2026 177.669 43.7398 177.132 43.7398 176.47C43.7398 175.807 43.2026 175.27 42.5398 175.27C41.8771 175.27 41.3398 175.807 41.3398 176.47C41.3398 177.132 41.8771 177.669 42.5398 177.669Z" fill="#12362A"/>
<path d="M56.3201 177.669C56.9829 177.669 57.5201 177.132 57.5201 176.47C57.5201 175.807 56.9829 175.27 56.3201 175.27C55.6574 175.27 55.1201 175.807 55.1201 176.47C55.1201 177.132 55.6574 177.669 56.3201 177.669Z" fill="#12362A"/>
<path d="M70.0999 177.669C70.7626 177.669 71.2999 177.132 71.2999 176.47C71.2999 175.807 70.7626 175.27 70.0999 175.27C69.4372 175.27 68.8999 175.807 68.8999 176.47C68.8999 177.132 69.4372 177.669 70.0999 177.669Z" fill="#12362A"/>
<path d="M83.8899 177.669C84.5527 177.669 85.09 177.132 85.09 176.47C85.09 175.807 84.5527 175.27 83.8899 175.27C83.2272 175.27 82.6899 175.807 82.6899 176.47C82.6899 177.132 83.2272 177.669 83.8899 177.669Z" fill="#12362A"/>
<path d="M97.6702 177.669C98.333 177.669 98.8702 177.132 98.8702 176.47C98.8702 175.807 98.333 175.27 97.6702 175.27C97.0075 175.27 96.4702 175.807 96.4702 176.47C96.4702 177.132 97.0075 177.669 97.6702 177.669Z" fill="#12362A"/>
<path d="M112.65 176.47C112.65 177.13 112.11 177.669 111.45 177.669C110.79 177.669 110.25 177.13 110.25 176.47C110.25 175.81 110.79 175.27 111.45 175.27C112.11 175.27 112.65 175.81 112.65 176.47Z" fill="#12362A"/>
<path d="M125.23 177.669C125.893 177.669 126.43 177.132 126.43 176.47C126.43 175.807 125.893 175.27 125.23 175.27C124.567 175.27 124.03 175.807 124.03 176.47C124.03 177.132 124.567 177.669 125.23 177.669Z" fill="#12362A"/>
<path d="M139.01 177.669C139.673 177.669 140.21 177.132 140.21 176.47C140.21 175.807 139.673 175.27 139.01 175.27C138.347 175.27 137.81 175.807 137.81 176.47C137.81 177.132 138.347 177.669 139.01 177.669Z" fill="#12362A"/>
<path d="M152.79 177.669C153.453 177.669 153.99 177.132 153.99 176.47C153.99 175.807 153.453 175.27 152.79 175.27C152.127 175.27 151.59 175.807 151.59 176.47C151.59 177.132 152.127 177.669 152.79 177.669Z" fill="#12362A"/>
<path d="M166.58 177.669C167.243 177.669 167.78 177.132 167.78 176.47C167.78 175.807 167.243 175.27 166.58 175.27C165.917 175.27 165.38 175.807 165.38 176.47C165.38 177.132 165.917 177.669 166.58 177.669Z" fill="#12362A"/>
<path d="M180.36 177.669C181.023 177.669 181.56 177.132 181.56 176.47C181.56 175.807 181.023 175.27 180.36 175.27C179.697 175.27 179.16 175.807 179.16 176.47C179.16 177.132 179.697 177.669 180.36 177.669Z" fill="#12362A"/>
<path d="M194.14 177.669C194.803 177.669 195.34 177.132 195.34 176.47C195.34 175.807 194.803 175.27 194.14 175.27C193.477 175.27 192.94 175.807 192.94 176.47C192.94 177.132 193.477 177.669 194.14 177.669Z" fill="#12362A"/>
<path d="M207.92 177.669C208.583 177.669 209.12 177.132 209.12 176.47C209.12 175.807 208.583 175.27 207.92 175.27C207.257 175.27 206.72 175.807 206.72 176.47C206.72 177.132 207.257 177.669 207.92 177.669Z" fill="#12362A"/>
<path d="M221.7 177.669C222.363 177.669 222.9 177.132 222.9 176.47C222.9 175.807 222.363 175.27 221.7 175.27C221.037 175.27 220.5 175.807 220.5 176.47C220.5 177.132 221.037 177.669 221.7 177.669Z" fill="#12362A"/>
<path d="M1.2 191.15C1.86274 191.15 2.4 190.613 2.4 189.95C2.4 189.287 1.86274 188.75 1.2 188.75C0.537255 188.75 0 189.287 0 189.95C0 190.613 0.537255 191.15 1.2 191.15Z" fill="#12362A"/>
<path d="M14.9798 191.15C15.6425 191.15 16.1798 190.613 16.1798 189.95C16.1798 189.287 15.6425 188.75 14.9798 188.75C14.317 188.75 13.7798 189.287 13.7798 189.95C13.7798 190.613 14.317 191.15 14.9798 191.15Z" fill="#12362A"/>
<path d="M28.7601 191.15C29.4228 191.15 29.9601 190.613 29.9601 189.95C29.9601 189.287 29.4228 188.75 28.7601 188.75C28.0973 188.75 27.5601 189.287 27.5601 189.95C27.5601 190.613 28.0973 191.15 28.7601 191.15Z" fill="#12362A"/>
<path d="M42.5398 191.15C43.2026 191.15 43.7398 190.613 43.7398 189.95C43.7398 189.287 43.2026 188.75 42.5398 188.75C41.8771 188.75 41.3398 189.287 41.3398 189.95C41.3398 190.613 41.8771 191.15 42.5398 191.15Z" fill="#12362A"/>
<path d="M56.3201 191.15C56.9829 191.15 57.5201 190.613 57.5201 189.95C57.5201 189.287 56.9829 188.75 56.3201 188.75C55.6574 188.75 55.1201 189.287 55.1201 189.95C55.1201 190.613 55.6574 191.15 56.3201 191.15Z" fill="#12362A"/>
<path d="M70.0999 191.15C70.7626 191.15 71.2999 190.613 71.2999 189.95C71.2999 189.287 70.7626 188.75 70.0999 188.75C69.4372 188.75 68.8999 189.287 68.8999 189.95C68.8999 190.613 69.4372 191.15 70.0999 191.15Z" fill="#12362A"/>
<path d="M83.8899 191.15C84.5527 191.15 85.09 190.613 85.09 189.95C85.09 189.287 84.5527 188.75 83.8899 188.75C83.2272 188.75 82.6899 189.287 82.6899 189.95C82.6899 190.613 83.2272 191.15 83.8899 191.15Z" fill="#12362A"/>
<path d="M97.6702 191.15C98.333 191.15 98.8702 190.613 98.8702 189.95C98.8702 189.287 98.333 188.75 97.6702 188.75C97.0075 188.75 96.4702 189.287 96.4702 189.95C96.4702 190.613 97.0075 191.15 97.6702 191.15Z" fill="#12362A"/>
<path d="M112.65 189.95C112.65 190.61 112.11 191.15 111.45 191.15C110.79 191.15 110.25 190.61 110.25 189.95C110.25 189.29 110.79 188.75 111.45 188.75C112.11 188.75 112.65 189.29 112.65 189.95Z" fill="#12362A"/>
<path d="M125.23 191.15C125.893 191.15 126.43 190.613 126.43 189.95C126.43 189.287 125.893 188.75 125.23 188.75C124.567 188.75 124.03 189.287 124.03 189.95C124.03 190.613 124.567 191.15 125.23 191.15Z" fill="#12362A"/>
<path d="M139.01 191.15C139.673 191.15 140.21 190.613 140.21 189.95C140.21 189.287 139.673 188.75 139.01 188.75C138.347 188.75 137.81 189.287 137.81 189.95C137.81 190.613 138.347 191.15 139.01 191.15Z" fill="#12362A"/>
<path d="M152.79 191.15C153.453 191.15 153.99 190.613 153.99 189.95C153.99 189.287 153.453 188.75 152.79 188.75C152.127 188.75 151.59 189.287 151.59 189.95C151.59 190.613 152.127 191.15 152.79 191.15Z" fill="#12362A"/>
<path d="M166.58 191.15C167.243 191.15 167.78 190.613 167.78 189.95C167.78 189.287 167.243 188.75 166.58 188.75C165.917 188.75 165.38 189.287 165.38 189.95C165.38 190.613 165.917 191.15 166.58 191.15Z" fill="#12362A"/>
<path d="M180.36 191.15C181.023 191.15 181.56 190.613 181.56 189.95C181.56 189.287 181.023 188.75 180.36 188.75C179.697 188.75 179.16 189.287 179.16 189.95C179.16 190.613 179.697 191.15 180.36 191.15Z" fill="#12362A"/>
<path d="M194.14 191.15C194.803 191.15 195.34 190.613 195.34 189.95C195.34 189.287 194.803 188.75 194.14 188.75C193.477 188.75 192.94 189.287 192.94 189.95C192.94 190.613 193.477 191.15 194.14 191.15Z" fill="#12362A"/>
<path d="M207.92 191.15C208.583 191.15 209.12 190.613 209.12 189.95C209.12 189.287 208.583 188.75 207.92 188.75C207.257 188.75 206.72 189.287 206.72 189.95C206.72 190.613 207.257 191.15 207.92 191.15Z" fill="#12362A"/>
<path d="M221.7 191.15C222.363 191.15 222.9 190.613 222.9 189.95C222.9 189.287 222.363 188.75 221.7 188.75C221.037 188.75 220.5 189.287 220.5 189.95C220.5 190.613 221.037 191.15 221.7 191.15Z" fill="#12362A"/>
<path d="M1.2 204.63C1.86274 204.63 2.4 204.093 2.4 203.43C2.4 202.768 1.86274 202.23 1.2 202.23C0.537255 202.23 0 202.768 0 203.43C0 204.093 0.537255 204.63 1.2 204.63Z" fill="#12362A"/>
<path d="M14.9798 204.63C15.6425 204.63 16.1798 204.093 16.1798 203.43C16.1798 202.768 15.6425 202.23 14.9798 202.23C14.317 202.23 13.7798 202.768 13.7798 203.43C13.7798 204.093 14.317 204.63 14.9798 204.63Z" fill="#12362A"/>
<path d="M28.7601 204.63C29.4228 204.63 29.9601 204.093 29.9601 203.43C29.9601 202.768 29.4228 202.23 28.7601 202.23C28.0973 202.23 27.5601 202.768 27.5601 203.43C27.5601 204.093 28.0973 204.63 28.7601 204.63Z" fill="#12362A"/>
<path d="M42.5398 204.63C43.2026 204.63 43.7398 204.093 43.7398 203.43C43.7398 202.768 43.2026 202.23 42.5398 202.23C41.8771 202.23 41.3398 202.768 41.3398 203.43C41.3398 204.093 41.8771 204.63 42.5398 204.63Z" fill="#12362A"/>
<path d="M56.3201 204.63C56.9829 204.63 57.5201 204.093 57.5201 203.43C57.5201 202.768 56.9829 202.23 56.3201 202.23C55.6574 202.23 55.1201 202.768 55.1201 203.43C55.1201 204.093 55.6574 204.63 56.3201 204.63Z" fill="#12362A"/>
<path d="M70.0999 204.63C70.7626 204.63 71.2999 204.093 71.2999 203.43C71.2999 202.768 70.7626 202.23 70.0999 202.23C69.4372 202.23 68.8999 202.768 68.8999 203.43C68.8999 204.093 69.4372 204.63 70.0999 204.63Z" fill="#12362A"/>
<path d="M83.8899 204.63C84.5527 204.63 85.09 204.093 85.09 203.43C85.09 202.768 84.5527 202.23 83.8899 202.23C83.2272 202.23 82.6899 202.768 82.6899 203.43C82.6899 204.093 83.2272 204.63 83.8899 204.63Z" fill="#12362A"/>
<path d="M97.6702 204.63C98.333 204.63 98.8702 204.093 98.8702 203.43C98.8702 202.768 98.333 202.23 97.6702 202.23C97.0075 202.23 96.4702 202.768 96.4702 203.43C96.4702 204.093 97.0075 204.63 97.6702 204.63Z" fill="#12362A"/>
<path d="M112.65 203.43C112.65 204.09 112.11 204.63 111.45 204.63C110.79 204.63 110.25 204.09 110.25 203.43C110.25 202.77 110.79 202.23 111.45 202.23C112.11 202.23 112.65 202.77 112.65 203.43Z" fill="#12362A"/>
<path d="M125.23 204.63C125.893 204.63 126.43 204.093 126.43 203.43C126.43 202.768 125.893 202.23 125.23 202.23C124.567 202.23 124.03 202.768 124.03 203.43C124.03 204.093 124.567 204.63 125.23 204.63Z" fill="#12362A"/>
<path d="M139.01 204.63C139.673 204.63 140.21 204.093 140.21 203.43C140.21 202.768 139.673 202.23 139.01 202.23C138.347 202.23 137.81 202.768 137.81 203.43C137.81 204.093 138.347 204.63 139.01 204.63Z" fill="#12362A"/>
<path d="M152.79 204.63C153.453 204.63 153.99 204.093 153.99 203.43C153.99 202.768 153.453 202.23 152.79 202.23C152.127 202.23 151.59 202.768 151.59 203.43C151.59 204.093 152.127 204.63 152.79 204.63Z" fill="#12362A"/>
<path d="M166.58 204.63C167.243 204.63 167.78 204.093 167.78 203.43C167.78 202.768 167.243 202.23 166.58 202.23C165.917 202.23 165.38 202.768 165.38 203.43C165.38 204.093 165.917 204.63 166.58 204.63Z" fill="#12362A"/>
<path d="M180.36 204.63C181.023 204.63 181.56 204.093 181.56 203.43C181.56 202.768 181.023 202.23 180.36 202.23C179.697 202.23 179.16 202.768 179.16 203.43C179.16 204.093 179.697 204.63 180.36 204.63Z" fill="#12362A"/>
<path d="M194.14 204.63C194.803 204.63 195.34 204.093 195.34 203.43C195.34 202.768 194.803 202.23 194.14 202.23C193.477 202.23 192.94 202.768 192.94 203.43C192.94 204.093 193.477 204.63 194.14 204.63Z" fill="#12362A"/>
<path d="M207.92 204.63C208.583 204.63 209.12 204.093 209.12 203.43C209.12 202.768 208.583 202.23 207.92 202.23C207.257 202.23 206.72 202.768 206.72 203.43C206.72 204.093 207.257 204.63 207.92 204.63Z" fill="#12362A"/>
<path d="M221.7 204.63C222.363 204.63 222.9 204.093 222.9 203.43C222.9 202.768 222.363 202.23 221.7 202.23C221.037 202.23 220.5 202.768 220.5 203.43C220.5 204.093 221.037 204.63 221.7 204.63Z" fill="#12362A"/>
<path d="M1.2 218.11C1.86274 218.11 2.4 217.573 2.4 216.91C2.4 216.247 1.86274 215.71 1.2 215.71C0.537255 215.71 0 216.247 0 216.91C0 217.573 0.537255 218.11 1.2 218.11Z" fill="#12362A"/>
<path d="M14.9798 218.11C15.6425 218.11 16.1798 217.573 16.1798 216.91C16.1798 216.247 15.6425 215.71 14.9798 215.71C14.317 215.71 13.7798 216.247 13.7798 216.91C13.7798 217.573 14.317 218.11 14.9798 218.11Z" fill="#12362A"/>
<path d="M28.7601 218.11C29.4228 218.11 29.9601 217.573 29.9601 216.91C29.9601 216.247 29.4228 215.71 28.7601 215.71C28.0973 215.71 27.5601 216.247 27.5601 216.91C27.5601 217.573 28.0973 218.11 28.7601 218.11Z" fill="#12362A"/>
<path d="M42.5398 218.11C43.2026 218.11 43.7398 217.573 43.7398 216.91C43.7398 216.247 43.2026 215.71 42.5398 215.71C41.8771 215.71 41.3398 216.247 41.3398 216.91C41.3398 217.573 41.8771 218.11 42.5398 218.11Z" fill="#12362A"/>
<path d="M56.3201 218.11C56.9829 218.11 57.5201 217.573 57.5201 216.91C57.5201 216.247 56.9829 215.71 56.3201 215.71C55.6574 215.71 55.1201 216.247 55.1201 216.91C55.1201 217.573 55.6574 218.11 56.3201 218.11Z" fill="#12362A"/>
<path d="M70.0999 218.11C70.7626 218.11 71.2999 217.573 71.2999 216.91C71.2999 216.247 70.7626 215.71 70.0999 215.71C69.4372 215.71 68.8999 216.247 68.8999 216.91C68.8999 217.573 69.4372 218.11 70.0999 218.11Z" fill="#12362A"/>
<path d="M83.8899 218.11C84.5527 218.11 85.09 217.573 85.09 216.91C85.09 216.247 84.5527 215.71 83.8899 215.71C83.2272 215.71 82.6899 216.247 82.6899 216.91C82.6899 217.573 83.2272 218.11 83.8899 218.11Z" fill="#12362A"/>
<path d="M97.6702 218.11C98.333 218.11 98.8702 217.573 98.8702 216.91C98.8702 216.247 98.333 215.71 97.6702 215.71C97.0075 215.71 96.4702 216.247 96.4702 216.91C96.4702 217.573 97.0075 218.11 97.6702 218.11Z" fill="#12362A"/>
<path d="M112.65 216.91C112.65 217.57 112.11 218.11 111.45 218.11C110.79 218.11 110.25 217.57 110.25 216.91C110.25 216.25 110.79 215.71 111.45 215.71C112.11 215.72 112.65 216.25 112.65 216.91Z" fill="#12362A"/>
<path d="M125.23 218.11C125.893 218.11 126.43 217.573 126.43 216.91C126.43 216.247 125.893 215.71 125.23 215.71C124.567 215.71 124.03 216.247 124.03 216.91C124.03 217.573 124.567 218.11 125.23 218.11Z" fill="#12362A"/>
<path d="M139.01 218.11C139.673 218.11 140.21 217.573 140.21 216.91C140.21 216.247 139.673 215.71 139.01 215.71C138.347 215.71 137.81 216.247 137.81 216.91C137.81 217.573 138.347 218.11 139.01 218.11Z" fill="#12362A"/>
<path d="M152.79 218.11C153.453 218.11 153.99 217.573 153.99 216.91C153.99 216.247 153.453 215.71 152.79 215.71C152.127 215.71 151.59 216.247 151.59 216.91C151.59 217.573 152.127 218.11 152.79 218.11Z" fill="#12362A"/>
<path d="M166.58 218.11C167.243 218.11 167.78 217.573 167.78 216.91C167.78 216.247 167.243 215.71 166.58 215.71C165.917 215.71 165.38 216.247 165.38 216.91C165.38 217.573 165.917 218.11 166.58 218.11Z" fill="#12362A"/>
<path d="M180.36 218.11C181.023 218.11 181.56 217.573 181.56 216.91C181.56 216.247 181.023 215.71 180.36 215.71C179.697 215.71 179.16 216.247 179.16 216.91C179.16 217.573 179.697 218.11 180.36 218.11Z" fill="#12362A"/>
<path d="M194.14 218.11C194.803 218.11 195.34 217.573 195.34 216.91C195.34 216.247 194.803 215.71 194.14 215.71C193.477 215.71 192.94 216.247 192.94 216.91C192.94 217.573 193.477 218.11 194.14 218.11Z" fill="#12362A"/>
<path d="M207.92 218.11C208.583 218.11 209.12 217.573 209.12 216.91C209.12 216.247 208.583 215.71 207.92 215.71C207.257 215.71 206.72 216.247 206.72 216.91C206.72 217.573 207.257 218.11 207.92 218.11Z" fill="#12362A"/>
<path d="M221.7 218.11C222.363 218.11 222.9 217.573 222.9 216.91C222.9 216.247 222.363 215.71 221.7 215.71C221.037 215.71 220.5 216.247 220.5 216.91C220.5 217.573 221.037 218.11 221.7 218.11Z" fill="#12362A"/>
<path d="M1.2 231.6C1.86274 231.6 2.4 231.063 2.4 230.4C2.4 229.737 1.86274 229.2 1.2 229.2C0.537255 229.2 0 229.737 0 230.4C0 231.063 0.537255 231.6 1.2 231.6Z" fill="#12362A"/>
<path d="M14.9798 231.6C15.6425 231.6 16.1798 231.063 16.1798 230.4C16.1798 229.737 15.6425 229.2 14.9798 229.2C14.317 229.2 13.7798 229.737 13.7798 230.4C13.7798 231.063 14.317 231.6 14.9798 231.6Z" fill="#12362A"/>
<path d="M28.7601 231.6C29.4228 231.6 29.9601 231.063 29.9601 230.4C29.9601 229.737 29.4228 229.2 28.7601 229.2C28.0973 229.2 27.5601 229.737 27.5601 230.4C27.5601 231.063 28.0973 231.6 28.7601 231.6Z" fill="#12362A"/>
<path d="M42.5398 231.6C43.2026 231.6 43.7398 231.063 43.7398 230.4C43.7398 229.737 43.2026 229.2 42.5398 229.2C41.8771 229.2 41.3398 229.737 41.3398 230.4C41.3398 231.063 41.8771 231.6 42.5398 231.6Z" fill="#12362A"/>
<path d="M56.3201 231.6C56.9829 231.6 57.5201 231.063 57.5201 230.4C57.5201 229.737 56.9829 229.2 56.3201 229.2C55.6574 229.2 55.1201 229.737 55.1201 230.4C55.1201 231.063 55.6574 231.6 56.3201 231.6Z" fill="#12362A"/>
<path d="M70.0999 231.6C70.7626 231.6 71.2999 231.063 71.2999 230.4C71.2999 229.737 70.7626 229.2 70.0999 229.2C69.4372 229.2 68.8999 229.737 68.8999 230.4C68.8999 231.063 69.4372 231.6 70.0999 231.6Z" fill="#12362A"/>
<path d="M83.8899 231.6C84.5527 231.6 85.09 231.063 85.09 230.4C85.09 229.737 84.5527 229.2 83.8899 229.2C83.2272 229.2 82.6899 229.737 82.6899 230.4C82.6899 231.063 83.2272 231.6 83.8899 231.6Z" fill="#12362A"/>
<path d="M97.6702 231.6C98.333 231.6 98.8702 231.063 98.8702 230.4C98.8702 229.737 98.333 229.2 97.6702 229.2C97.0075 229.2 96.4702 229.737 96.4702 230.4C96.4702 231.063 97.0075 231.6 97.6702 231.6Z" fill="#12362A"/>
<path d="M112.65 230.4C112.65 231.06 112.11 231.6 111.45 231.6C110.79 231.6 110.25 231.06 110.25 230.4C110.25 229.74 110.79 229.2 111.45 229.2C112.11 229.2 112.65 229.73 112.65 230.4Z" fill="#12362A"/>
<path d="M125.23 231.6C125.893 231.6 126.43 231.063 126.43 230.4C126.43 229.737 125.893 229.2 125.23 229.2C124.567 229.2 124.03 229.737 124.03 230.4C124.03 231.063 124.567 231.6 125.23 231.6Z" fill="#12362A"/>
<path d="M139.01 231.6C139.673 231.6 140.21 231.063 140.21 230.4C140.21 229.737 139.673 229.2 139.01 229.2C138.347 229.2 137.81 229.737 137.81 230.4C137.81 231.063 138.347 231.6 139.01 231.6Z" fill="#12362A"/>
<path d="M152.79 231.6C153.453 231.6 153.99 231.063 153.99 230.4C153.99 229.737 153.453 229.2 152.79 229.2C152.127 229.2 151.59 229.737 151.59 230.4C151.59 231.063 152.127 231.6 152.79 231.6Z" fill="#12362A"/>
<path d="M166.58 231.6C167.243 231.6 167.78 231.063 167.78 230.4C167.78 229.737 167.243 229.2 166.58 229.2C165.917 229.2 165.38 229.737 165.38 230.4C165.38 231.063 165.917 231.6 166.58 231.6Z" fill="#12362A"/>
<path d="M180.36 231.6C181.023 231.6 181.56 231.063 181.56 230.4C181.56 229.737 181.023 229.2 180.36 229.2C179.697 229.2 179.16 229.737 179.16 230.4C179.16 231.063 179.697 231.6 180.36 231.6Z" fill="#12362A"/>
<path d="M194.14 231.6C194.803 231.6 195.34 231.063 195.34 230.4C195.34 229.737 194.803 229.2 194.14 229.2C193.477 229.2 192.94 229.737 192.94 230.4C192.94 231.063 193.477 231.6 194.14 231.6Z" fill="#12362A"/>
<path d="M207.92 231.6C208.583 231.6 209.12 231.063 209.12 230.4C209.12 229.737 208.583 229.2 207.92 229.2C207.257 229.2 206.72 229.737 206.72 230.4C206.72 231.063 207.257 231.6 207.92 231.6Z" fill="#12362A"/>
<path d="M221.7 231.6C222.363 231.6 222.9 231.063 222.9 230.4C222.9 229.737 222.363 229.2 221.7 229.2C221.037 229.2 220.5 229.737 220.5 230.4C220.5 231.063 221.037 231.6 221.7 231.6Z" fill="#12362A"/>
<path d="M1.2 245.08C1.86274 245.08 2.4 244.542 2.4 243.88C2.4 243.217 1.86274 242.68 1.2 242.68C0.537255 242.68 0 243.217 0 243.88C0 244.542 0.537255 245.08 1.2 245.08Z" fill="#12362A"/>
<path d="M14.9798 245.08C15.6425 245.08 16.1798 244.542 16.1798 243.88C16.1798 243.217 15.6425 242.68 14.9798 242.68C14.317 242.68 13.7798 243.217 13.7798 243.88C13.7798 244.542 14.317 245.08 14.9798 245.08Z" fill="#12362A"/>
<path d="M28.7601 245.08C29.4228 245.08 29.9601 244.542 29.9601 243.88C29.9601 243.217 29.4228 242.68 28.7601 242.68C28.0973 242.68 27.5601 243.217 27.5601 243.88C27.5601 244.542 28.0973 245.08 28.7601 245.08Z" fill="#12362A"/>
<path d="M42.5398 245.08C43.2026 245.08 43.7398 244.542 43.7398 243.88C43.7398 243.217 43.2026 242.68 42.5398 242.68C41.8771 242.68 41.3398 243.217 41.3398 243.88C41.3398 244.542 41.8771 245.08 42.5398 245.08Z" fill="#12362A"/>
<path d="M56.3201 245.08C56.9829 245.08 57.5201 244.542 57.5201 243.88C57.5201 243.217 56.9829 242.68 56.3201 242.68C55.6574 242.68 55.1201 243.217 55.1201 243.88C55.1201 244.542 55.6574 245.08 56.3201 245.08Z" fill="#12362A"/>
<path d="M70.0999 245.08C70.7626 245.08 71.2999 244.542 71.2999 243.88C71.2999 243.217 70.7626 242.68 70.0999 242.68C69.4372 242.68 68.8999 243.217 68.8999 243.88C68.8999 244.542 69.4372 245.08 70.0999 245.08Z" fill="#12362A"/>
<path d="M83.8899 245.08C84.5527 245.08 85.09 244.542 85.09 243.88C85.09 243.217 84.5527 242.68 83.8899 242.68C83.2272 242.68 82.6899 243.217 82.6899 243.88C82.6899 244.542 83.2272 245.08 83.8899 245.08Z" fill="#12362A"/>
<path d="M97.6702 245.08C98.333 245.08 98.8702 244.542 98.8702 243.88C98.8702 243.217 98.333 242.68 97.6702 242.68C97.0075 242.68 96.4702 243.217 96.4702 243.88C96.4702 244.542 97.0075 245.08 97.6702 245.08Z" fill="#12362A"/>
<path d="M112.65 243.88C112.65 244.54 112.11 245.08 111.45 245.08C110.79 245.08 110.25 244.54 110.25 243.88C110.25 243.22 110.79 242.68 111.45 242.68C112.11 242.68 112.65 243.22 112.65 243.88Z" fill="#12362A"/>
<path d="M125.23 245.08C125.893 245.08 126.43 244.542 126.43 243.88C126.43 243.217 125.893 242.68 125.23 242.68C124.567 242.68 124.03 243.217 124.03 243.88C124.03 244.542 124.567 245.08 125.23 245.08Z" fill="#12362A"/>
<path d="M139.01 245.08C139.673 245.08 140.21 244.542 140.21 243.88C140.21 243.217 139.673 242.68 139.01 242.68C138.347 242.68 137.81 243.217 137.81 243.88C137.81 244.542 138.347 245.08 139.01 245.08Z" fill="#12362A"/>
<path d="M152.79 245.08C153.453 245.08 153.99 244.542 153.99 243.88C153.99 243.217 153.453 242.68 152.79 242.68C152.127 242.68 151.59 243.217 151.59 243.88C151.59 244.542 152.127 245.08 152.79 245.08Z" fill="#12362A"/>
<path d="M166.58 245.08C167.243 245.08 167.78 244.542 167.78 243.88C167.78 243.217 167.243 242.68 166.58 242.68C165.917 242.68 165.38 243.217 165.38 243.88C165.38 244.542 165.917 245.08 166.58 245.08Z" fill="#12362A"/>
<path d="M180.36 245.08C181.023 245.08 181.56 244.542 181.56 243.88C181.56 243.217 181.023 242.68 180.36 242.68C179.697 242.68 179.16 243.217 179.16 243.88C179.16 244.542 179.697 245.08 180.36 245.08Z" fill="#12362A"/>
<path d="M194.14 245.08C194.803 245.08 195.34 244.542 195.34 243.88C195.34 243.217 194.803 242.68 194.14 242.68C193.477 242.68 192.94 243.217 192.94 243.88C192.94 244.542 193.477 245.08 194.14 245.08Z" fill="#12362A"/>
<path d="M207.92 245.08C208.583 245.08 209.12 244.542 209.12 243.88C209.12 243.217 208.583 242.68 207.92 242.68C207.257 242.68 206.72 243.217 206.72 243.88C206.72 244.542 207.257 245.08 207.92 245.08Z" fill="#12362A"/>
<path d="M221.7 245.08C222.363 245.08 222.9 244.542 222.9 243.88C222.9 243.217 222.363 242.68 221.7 242.68C221.037 242.68 220.5 243.217 220.5 243.88C220.5 244.542 221.037 245.08 221.7 245.08Z" fill="#12362A"/>
<path d="M1.2 258.56C1.86274 258.56 2.4 258.023 2.4 257.36C2.4 256.697 1.86274 256.16 1.2 256.16C0.537255 256.16 0 256.697 0 257.36C0 258.023 0.537255 258.56 1.2 258.56Z" fill="#12362A"/>
<path d="M14.9798 258.56C15.6425 258.56 16.1798 258.023 16.1798 257.36C16.1798 256.697 15.6425 256.16 14.9798 256.16C14.317 256.16 13.7798 256.697 13.7798 257.36C13.7798 258.023 14.317 258.56 14.9798 258.56Z" fill="#12362A"/>
<path d="M28.7601 258.56C29.4228 258.56 29.9601 258.023 29.9601 257.36C29.9601 256.697 29.4228 256.16 28.7601 256.16C28.0973 256.16 27.5601 256.697 27.5601 257.36C27.5601 258.023 28.0973 258.56 28.7601 258.56Z" fill="#12362A"/>
<path d="M42.5398 258.56C43.2026 258.56 43.7398 258.023 43.7398 257.36C43.7398 256.697 43.2026 256.16 42.5398 256.16C41.8771 256.16 41.3398 256.697 41.3398 257.36C41.3398 258.023 41.8771 258.56 42.5398 258.56Z" fill="#12362A"/>
<path d="M56.3201 258.56C56.9829 258.56 57.5201 258.023 57.5201 257.36C57.5201 256.697 56.9829 256.16 56.3201 256.16C55.6574 256.16 55.1201 256.697 55.1201 257.36C55.1201 258.023 55.6574 258.56 56.3201 258.56Z" fill="#12362A"/>
<path d="M70.0999 258.56C70.7626 258.56 71.2999 258.023 71.2999 257.36C71.2999 256.697 70.7626 256.16 70.0999 256.16C69.4372 256.16 68.8999 256.697 68.8999 257.36C68.8999 258.023 69.4372 258.56 70.0999 258.56Z" fill="#12362A"/>
<path d="M83.8899 258.56C84.5527 258.56 85.09 258.023 85.09 257.36C85.09 256.697 84.5527 256.16 83.8899 256.16C83.2272 256.16 82.6899 256.697 82.6899 257.36C82.6899 258.023 83.2272 258.56 83.8899 258.56Z" fill="#12362A"/>
<path d="M97.6702 258.56C98.333 258.56 98.8702 258.023 98.8702 257.36C98.8702 256.697 98.333 256.16 97.6702 256.16C97.0075 256.16 96.4702 256.697 96.4702 257.36C96.4702 258.023 97.0075 258.56 97.6702 258.56Z" fill="#12362A"/>
<path d="M112.65 257.36C112.65 258.02 112.11 258.56 111.45 258.56C110.79 258.56 110.25 258.02 110.25 257.36C110.25 256.7 110.79 256.16 111.45 256.16C112.11 256.16 112.65 256.7 112.65 257.36Z" fill="#12362A"/>
<path d="M125.23 258.56C125.893 258.56 126.43 258.023 126.43 257.36C126.43 256.697 125.893 256.16 125.23 256.16C124.567 256.16 124.03 256.697 124.03 257.36C124.03 258.023 124.567 258.56 125.23 258.56Z" fill="#12362A"/>
<path d="M139.01 258.56C139.673 258.56 140.21 258.023 140.21 257.36C140.21 256.697 139.673 256.16 139.01 256.16C138.347 256.16 137.81 256.697 137.81 257.36C137.81 258.023 138.347 258.56 139.01 258.56Z" fill="#12362A"/>
<path d="M152.79 258.56C153.453 258.56 153.99 258.023 153.99 257.36C153.99 256.697 153.453 256.16 152.79 256.16C152.127 256.16 151.59 256.697 151.59 257.36C151.59 258.023 152.127 258.56 152.79 258.56Z" fill="#12362A"/>
<path d="M166.58 258.56C167.243 258.56 167.78 258.023 167.78 257.36C167.78 256.697 167.243 256.16 166.58 256.16C165.917 256.16 165.38 256.697 165.38 257.36C165.38 258.023 165.917 258.56 166.58 258.56Z" fill="#12362A"/>
<path d="M180.36 258.56C181.023 258.56 181.56 258.023 181.56 257.36C181.56 256.697 181.023 256.16 180.36 256.16C179.697 256.16 179.16 256.697 179.16 257.36C179.16 258.023 179.697 258.56 180.36 258.56Z" fill="#12362A"/>
<path d="M194.14 258.56C194.803 258.56 195.34 258.023 195.34 257.36C195.34 256.697 194.803 256.16 194.14 256.16C193.477 256.16 192.94 256.697 192.94 257.36C192.94 258.023 193.477 258.56 194.14 258.56Z" fill="#12362A"/>
<path d="M207.92 258.56C208.583 258.56 209.12 258.023 209.12 257.36C209.12 256.697 208.583 256.16 207.92 256.16C207.257 256.16 206.72 256.697 206.72 257.36C206.72 258.023 207.257 258.56 207.92 258.56Z" fill="#12362A"/>
<path d="M221.7 258.56C222.363 258.56 222.9 258.023 222.9 257.36C222.9 256.697 222.363 256.16 221.7 256.16C221.037 256.16 220.5 256.697 220.5 257.36C220.5 258.023 221.037 258.56 221.7 258.56Z" fill="#12362A"/>
<path d="M1.2 272.04C1.86274 272.04 2.4 271.502 2.4 270.84C2.4 270.177 1.86274 269.64 1.2 269.64C0.537255 269.64 0 270.177 0 270.84C0 271.502 0.537255 272.04 1.2 272.04Z" fill="#12362A"/>
<path d="M14.9798 272.04C15.6425 272.04 16.1798 271.502 16.1798 270.84C16.1798 270.177 15.6425 269.64 14.9798 269.64C14.317 269.64 13.7798 270.177 13.7798 270.84C13.7798 271.502 14.317 272.04 14.9798 272.04Z" fill="#12362A"/>
<path d="M28.7601 272.04C29.4228 272.04 29.9601 271.502 29.9601 270.84C29.9601 270.177 29.4228 269.64 28.7601 269.64C28.0973 269.64 27.5601 270.177 27.5601 270.84C27.5601 271.502 28.0973 272.04 28.7601 272.04Z" fill="#12362A"/>
<path d="M42.5398 272.04C43.2026 272.04 43.7398 271.502 43.7398 270.84C43.7398 270.177 43.2026 269.64 42.5398 269.64C41.8771 269.64 41.3398 270.177 41.3398 270.84C41.3398 271.502 41.8771 272.04 42.5398 272.04Z" fill="#12362A"/>
<path d="M56.3201 272.04C56.9829 272.04 57.5201 271.502 57.5201 270.84C57.5201 270.177 56.9829 269.64 56.3201 269.64C55.6574 269.64 55.1201 270.177 55.1201 270.84C55.1201 271.502 55.6574 272.04 56.3201 272.04Z" fill="#12362A"/>
<path d="M70.0999 272.04C70.7626 272.04 71.2999 271.502 71.2999 270.84C71.2999 270.177 70.7626 269.64 70.0999 269.64C69.4372 269.64 68.8999 270.177 68.8999 270.84C68.8999 271.502 69.4372 272.04 70.0999 272.04Z" fill="#12362A"/>
<path d="M83.8899 272.04C84.5527 272.04 85.09 271.502 85.09 270.84C85.09 270.177 84.5527 269.64 83.8899 269.64C83.2272 269.64 82.6899 270.177 82.6899 270.84C82.6899 271.502 83.2272 272.04 83.8899 272.04Z" fill="#12362A"/>
<path d="M97.6702 272.04C98.333 272.04 98.8702 271.502 98.8702 270.84C98.8702 270.177 98.333 269.64 97.6702 269.64C97.0075 269.64 96.4702 270.177 96.4702 270.84C96.4702 271.502 97.0075 272.04 97.6702 272.04Z" fill="#12362A"/>
<path d="M112.65 270.84C112.65 271.5 112.11 272.04 111.45 272.04C110.79 272.04 110.25 271.5 110.25 270.84C110.25 270.18 110.79 269.64 111.45 269.64C112.11 269.64 112.65 270.18 112.65 270.84Z" fill="#12362A"/>
<path d="M125.23 272.04C125.893 272.04 126.43 271.502 126.43 270.84C126.43 270.177 125.893 269.64 125.23 269.64C124.567 269.64 124.03 270.177 124.03 270.84C124.03 271.502 124.567 272.04 125.23 272.04Z" fill="#12362A"/>
<path d="M139.01 272.04C139.673 272.04 140.21 271.502 140.21 270.84C140.21 270.177 139.673 269.64 139.01 269.64C138.347 269.64 137.81 270.177 137.81 270.84C137.81 271.502 138.347 272.04 139.01 272.04Z" fill="#12362A"/>
<path d="M152.79 272.04C153.453 272.04 153.99 271.502 153.99 270.84C153.99 270.177 153.453 269.64 152.79 269.64C152.127 269.64 151.59 270.177 151.59 270.84C151.59 271.502 152.127 272.04 152.79 272.04Z" fill="#12362A"/>
<path d="M166.58 272.04C167.243 272.04 167.78 271.502 167.78 270.84C167.78 270.177 167.243 269.64 166.58 269.64C165.917 269.64 165.38 270.177 165.38 270.84C165.38 271.502 165.917 272.04 166.58 272.04Z" fill="#12362A"/>
<path d="M180.36 272.04C181.023 272.04 181.56 271.502 181.56 270.84C181.56 270.177 181.023 269.64 180.36 269.64C179.697 269.64 179.16 270.177 179.16 270.84C179.16 271.502 179.697 272.04 180.36 272.04Z" fill="#12362A"/>
<path d="M194.14 272.04C194.803 272.04 195.34 271.502 195.34 270.84C195.34 270.177 194.803 269.64 194.14 269.64C193.477 269.64 192.94 270.177 192.94 270.84C192.94 271.502 193.477 272.04 194.14 272.04Z" fill="#12362A"/>
<path d="M207.92 272.04C208.583 272.04 209.12 271.502 209.12 270.84C209.12 270.177 208.583 269.64 207.92 269.64C207.257 269.64 206.72 270.177 206.72 270.84C206.72 271.502 207.257 272.04 207.92 272.04Z" fill="#12362A"/>
<path d="M221.7 272.04C222.363 272.04 222.9 271.502 222.9 270.84C222.9 270.177 222.363 269.64 221.7 269.64C221.037 269.64 220.5 270.177 220.5 270.84C220.5 271.502 221.037 272.04 221.7 272.04Z" fill="#12362A"/>
<path d="M2.4 284.32C2.4 284.98 1.86 285.52 1.2 285.52C0.539997 285.52 0 284.98 0 284.32C0 283.66 0.539997 283.12 1.2 283.12C1.86 283.13 2.4 283.66 2.4 284.32Z" fill="#12362A"/>
<path d="M16.1798 284.32C16.1798 284.98 15.6398 285.52 14.9798 285.52C14.3198 285.52 13.7798 284.98 13.7798 284.32C13.7798 283.66 14.3198 283.12 14.9798 283.12C15.6398 283.13 16.1798 283.66 16.1798 284.32Z" fill="#12362A"/>
<path d="M29.9601 284.32C29.9601 284.98 29.4201 285.52 28.7601 285.52C28.1001 285.52 27.5601 284.98 27.5601 284.32C27.5601 283.66 28.1001 283.12 28.7601 283.12C29.4201 283.13 29.9601 283.66 29.9601 284.32Z" fill="#12362A"/>
<path d="M43.7398 284.32C43.7398 284.98 43.1998 285.52 42.5398 285.52C41.8798 285.52 41.3398 284.98 41.3398 284.32C41.3398 283.66 41.8798 283.12 42.5398 283.12C43.1998 283.13 43.7398 283.66 43.7398 284.32Z" fill="#12362A"/>
<path d="M57.5201 284.32C57.5201 284.98 56.9801 285.52 56.3201 285.52C55.6601 285.52 55.1201 284.98 55.1201 284.32C55.1201 283.66 55.6601 283.12 56.3201 283.12C56.9801 283.13 57.5201 283.66 57.5201 284.32Z" fill="#12362A"/>
<path d="M71.2999 284.32C71.2999 284.98 70.7599 285.52 70.0999 285.52C69.4399 285.52 68.8999 284.98 68.8999 284.32C68.8999 283.66 69.4399 283.12 70.0999 283.12C70.7699 283.13 71.2999 283.66 71.2999 284.32Z" fill="#12362A"/>
<path d="M85.0802 284.32C85.0802 284.98 84.5402 285.52 83.8802 285.52C83.2202 285.52 82.6802 284.98 82.6802 284.32C82.6802 283.66 83.2202 283.12 83.8802 283.12C84.5502 283.13 85.0802 283.66 85.0802 284.32Z" fill="#12362A"/>
<path d="M98.8702 284.32C98.8702 284.98 98.3302 285.52 97.6702 285.52C97.0102 285.52 96.4702 284.98 96.4702 284.32C96.4702 283.66 97.0102 283.12 97.6702 283.12C98.3302 283.12 98.8702 283.66 98.8702 284.32Z" fill="#12362A"/>
<path d="M112.65 284.32C112.65 284.98 112.11 285.52 111.45 285.52C110.79 285.52 110.25 284.98 110.25 284.32C110.25 283.66 110.79 283.12 111.45 283.12C112.11 283.13 112.65 283.66 112.65 284.32Z" fill="#12362A"/>
<path d="M126.43 284.32C126.43 284.98 125.89 285.52 125.23 285.52C124.57 285.52 124.03 284.98 124.03 284.32C124.03 283.66 124.57 283.12 125.23 283.12C125.89 283.13 126.43 283.66 126.43 284.32Z" fill="#12362A"/>
<path d="M140.21 284.32C140.21 284.98 139.67 285.52 139.01 285.52C138.35 285.52 137.81 284.98 137.81 284.32C137.81 283.66 138.35 283.12 139.01 283.12C139.67 283.13 140.21 283.66 140.21 284.32Z" fill="#12362A"/>
<path d="M153.99 284.32C153.99 284.98 153.45 285.52 152.79 285.52C152.13 285.52 151.59 284.98 151.59 284.32C151.59 283.66 152.13 283.12 152.79 283.12C153.46 283.13 153.99 283.66 153.99 284.32Z" fill="#12362A"/>
<path d="M167.77 284.32C167.77 284.98 167.23 285.52 166.57 285.52C165.91 285.52 165.37 284.98 165.37 284.32C165.37 283.66 165.91 283.12 166.57 283.12C167.24 283.13 167.77 283.66 167.77 284.32Z" fill="#12362A"/>
<path d="M181.56 284.32C181.56 284.98 181.02 285.52 180.36 285.52C179.7 285.52 179.16 284.98 179.16 284.32C179.16 283.66 179.7 283.12 180.36 283.12C181.02 283.13 181.56 283.66 181.56 284.32Z" fill="#12362A"/>
<path d="M195.34 284.32C195.34 284.98 194.8 285.52 194.14 285.52C193.48 285.52 192.94 284.98 192.94 284.32C192.94 283.66 193.48 283.12 194.14 283.12C194.8 283.12 195.34 283.66 195.34 284.32Z" fill="#12362A"/>
<path d="M209.12 284.32C209.12 284.98 208.58 285.52 207.92 285.52C207.26 285.52 206.72 284.98 206.72 284.32C206.72 283.66 207.26 283.12 207.92 283.12C208.58 283.13 209.12 283.66 209.12 284.32Z" fill="#12362A"/>
<path d="M222.9 284.32C222.9 284.98 222.36 285.52 221.7 285.52C221.04 285.52 220.5 284.98 220.5 284.32C220.5 283.66 221.04 283.12 221.7 283.12C222.36 283.13 222.9 283.66 222.9 284.32Z" fill="#12362A"/>
<path d="M1.2 299.01C1.86274 299.01 2.4 298.473 2.4 297.81C2.4 297.148 1.86274 296.61 1.2 296.61C0.537255 296.61 0 297.148 0 297.81C0 298.473 0.537255 299.01 1.2 299.01Z" fill="#12362A"/>
<path d="M14.9798 299.01C15.6425 299.01 16.1798 298.473 16.1798 297.81C16.1798 297.148 15.6425 296.61 14.9798 296.61C14.317 296.61 13.7798 297.148 13.7798 297.81C13.7798 298.473 14.317 299.01 14.9798 299.01Z" fill="#12362A"/>
<path d="M28.7601 299.01C29.4228 299.01 29.9601 298.473 29.9601 297.81C29.9601 297.148 29.4228 296.61 28.7601 296.61C28.0973 296.61 27.5601 297.148 27.5601 297.81C27.5601 298.473 28.0973 299.01 28.7601 299.01Z" fill="#12362A"/>
<path d="M42.5398 299.01C43.2026 299.01 43.7398 298.473 43.7398 297.81C43.7398 297.148 43.2026 296.61 42.5398 296.61C41.8771 296.61 41.3398 297.148 41.3398 297.81C41.3398 298.473 41.8771 299.01 42.5398 299.01Z" fill="#12362A"/>
<path d="M56.3201 299.01C56.9829 299.01 57.5201 298.473 57.5201 297.81C57.5201 297.148 56.9829 296.61 56.3201 296.61C55.6574 296.61 55.1201 297.148 55.1201 297.81C55.1201 298.473 55.6574 299.01 56.3201 299.01Z" fill="#12362A"/>
<path d="M70.0999 299.01C70.7626 299.01 71.2999 298.473 71.2999 297.81C71.2999 297.148 70.7626 296.61 70.0999 296.61C69.4372 296.61 68.8999 297.148 68.8999 297.81C68.8999 298.473 69.4372 299.01 70.0999 299.01Z" fill="#12362A"/>
<path d="M83.8899 299.01C84.5527 299.01 85.09 298.473 85.09 297.81C85.09 297.148 84.5527 296.61 83.8899 296.61C83.2272 296.61 82.6899 297.148 82.6899 297.81C82.6899 298.473 83.2272 299.01 83.8899 299.01Z" fill="#12362A"/>
<path d="M97.6702 299.01C98.333 299.01 98.8702 298.473 98.8702 297.81C98.8702 297.148 98.333 296.61 97.6702 296.61C97.0075 296.61 96.4702 297.148 96.4702 297.81C96.4702 298.473 97.0075 299.01 97.6702 299.01Z" fill="#12362A"/>
<path d="M112.65 297.81C112.65 298.47 112.11 299.01 111.45 299.01C110.79 299.01 110.25 298.47 110.25 297.81C110.25 297.15 110.79 296.61 111.45 296.61C112.11 296.61 112.65 297.14 112.65 297.81Z" fill="#12362A"/>
<path d="M125.23 299.01C125.893 299.01 126.43 298.473 126.43 297.81C126.43 297.148 125.893 296.61 125.23 296.61C124.567 296.61 124.03 297.148 124.03 297.81C124.03 298.473 124.567 299.01 125.23 299.01Z" fill="#12362A"/>
<path d="M139.01 299.01C139.673 299.01 140.21 298.473 140.21 297.81C140.21 297.148 139.673 296.61 139.01 296.61C138.347 296.61 137.81 297.148 137.81 297.81C137.81 298.473 138.347 299.01 139.01 299.01Z" fill="#12362A"/>
<path d="M152.79 299.01C153.453 299.01 153.99 298.473 153.99 297.81C153.99 297.148 153.453 296.61 152.79 296.61C152.127 296.61 151.59 297.148 151.59 297.81C151.59 298.473 152.127 299.01 152.79 299.01Z" fill="#12362A"/>
<path d="M166.58 299.01C167.243 299.01 167.78 298.473 167.78 297.81C167.78 297.148 167.243 296.61 166.58 296.61C165.917 296.61 165.38 297.148 165.38 297.81C165.38 298.473 165.917 299.01 166.58 299.01Z" fill="#12362A"/>
<path d="M180.36 299.01C181.023 299.01 181.56 298.473 181.56 297.81C181.56 297.148 181.023 296.61 180.36 296.61C179.697 296.61 179.16 297.148 179.16 297.81C179.16 298.473 179.697 299.01 180.36 299.01Z" fill="#12362A"/>
<path d="M194.14 299.01C194.803 299.01 195.34 298.473 195.34 297.81C195.34 297.148 194.803 296.61 194.14 296.61C193.477 296.61 192.94 297.148 192.94 297.81C192.94 298.473 193.477 299.01 194.14 299.01Z" fill="#12362A"/>
<path d="M207.92 299.01C208.583 299.01 209.12 298.473 209.12 297.81C209.12 297.148 208.583 296.61 207.92 296.61C207.257 296.61 206.72 297.148 206.72 297.81C206.72 298.473 207.257 299.01 207.92 299.01Z" fill="#12362A"/>
<path d="M221.7 299.01C222.363 299.01 222.9 298.473 222.9 297.81C222.9 297.148 222.363 296.61 221.7 296.61C221.037 296.61 220.5 297.148 220.5 297.81C220.5 298.473 221.037 299.01 221.7 299.01Z" fill="#12362A"/>
</svg>
