<svg width="17" height="20" viewBox="0 0 17 20" fill="none" xmlns="http://www.w3.org/2000/svg">
<path fill-rule="evenodd" clip-rule="evenodd" d="M8.53 1.99535e-05C10.79 0.01002 12.95 0.91002 14.53 2.49002C16.12 4.08002 17.01 6.23002 17 8.46002V8.51002C16.94 11.54 15.24 14.33 13.12 16.51C11.92 17.74 10.59 18.83 9.14 19.75C8.75 20.08 8.18 20.08 7.79 19.75C5.64 18.35 3.74 16.59 2.2 14.54C0.85 12.76 0.08 10.62 0 8.39002C0.02 3.74002 3.84 -0.00998005 8.53 1.99535e-05ZM8.53009 11.2602C9.24009 11.2602 9.92009 10.9902 10.4201 10.5002C10.9401 9.99016 11.2311 9.31116 11.2311 8.60016C11.2311 7.12016 10.0201 5.93016 8.53009 5.93016C7.04009 5.93016 5.84009 7.12016 5.84009 8.60016C5.84009 10.0612 7.02009 11.2402 8.50009 11.2602H8.53009Z" fill="white"/>
</svg>
