<svg width="20" height="18" viewBox="0 0 20 18" fill="none" xmlns="http://www.w3.org/2000/svg">
<path fill-rule="evenodd" clip-rule="evenodd" d="M14.9394 0C16.2804 0 17.5704 0.53 18.5194 1.481C19.4694 2.43 20.0004 3.71 20.0004 5.05V12.95C20.0004 15.74 17.7304 18 14.9394 18H5.06037C2.26937 18 0.000366211 15.74 0.000366211 12.95V5.05C0.000366211 2.26 2.25937 0 5.06037 0H14.9394ZM16.5303 6.53984L16.6103 6.45984C16.8493 6.16984 16.8493 5.74984 16.5993 5.45984C16.4603 5.31084 16.2693 5.21984 16.0703 5.19984C15.8603 5.18884 15.6603 5.25984 15.5093 5.39984L11.0003 8.99984C10.4203 9.48084 9.5893 9.48084 9.0003 8.99984L4.5003 5.39984C4.1893 5.16984 3.7593 5.19984 3.5003 5.46984C3.2303 5.73984 3.2003 6.16984 3.4293 6.46984L3.5603 6.59984L8.1103 10.1498C8.6703 10.5898 9.3493 10.8298 10.0603 10.8298C10.7693 10.8298 11.4603 10.5898 12.0193 10.1498L16.5303 6.53984Z" fill="#8A8A8A"/>
</svg>
