<svg width="48" height="48" viewBox="0 0 48 48" fill="none" xmlns="http://www.w3.org/2000/svg">
<path d="M4.7998 12C4.7998 10.727 5.30552 9.50607 6.20569 8.6059C7.10587 7.70572 8.32677 7.20001 9.5998 7.20001H26.3998C27.6728 7.20001 28.8937 7.70572 29.7939 8.6059C30.6941 9.50607 31.1998 10.727 31.1998 12V21.6C31.1998 22.8731 30.6941 24.0939 29.7939 24.9941C28.8937 25.8943 27.6728 26.4 26.3998 26.4H21.5998L14.3998 33.6V26.4H9.5998C8.32677 26.4 7.10587 25.8943 6.20569 24.9941C5.30552 24.0939 4.7998 22.8731 4.7998 21.6V12Z" fill="#F9A31B"/>
<path d="M35.9998 16.8V21.6C35.9998 24.1461 34.9884 26.5879 33.1881 28.3882C31.3877 30.1886 28.9459 31.2 26.3998 31.2H23.587L19.3486 35.4408C20.0206 35.7984 20.7862 36 21.5998 36H26.3998L33.5998 43.2V36H38.3998C39.6729 36 40.8938 35.4943 41.7939 34.5941C42.6941 33.6939 43.1998 32.473 43.1998 31.2V21.6C43.1998 20.3269 42.6941 19.106 41.7939 18.2059C40.8938 17.3057 39.6729 16.8 38.3998 16.8H35.9998Z" fill="#F9A31B"/>
<circle cx="12" cy="17" r="2" fill="white"/>
<circle cx="18" cy="17" r="2" fill="white"/>
<circle cx="24" cy="17" r="2" fill="white"/>
</svg>
