<svg width="32" height="33" viewBox="0 0 32 33" fill="none" xmlns="http://www.w3.org/2000/svg">
<path d="M18.0085 11.4142C17.7842 11.4142 17.5845 11.2549 17.5415 11.0264C17.4929 10.7682 17.6628 10.5194 17.921 10.4708L21.1553 9.86189C21.4136 9.81301 21.6623 9.9832 21.7109 10.2414C21.7595 10.4996 21.5896 10.7484 21.3314 10.7969L18.0971 11.4059C18.0673 11.4116 18.0376 11.4142 18.0085 11.4142Z" fill="#35495D"/>
<path d="M21.2286 8.70382L19.8033 6.97363L18.5781 6.98276L20.4942 9.30882C20.5883 9.42307 20.7245 9.48207 20.8617 9.48207C20.9682 9.48207 21.0754 9.44651 21.1639 9.37351C21.3667 9.20644 21.3956 8.90663 21.2286 8.70382Z" fill="#1785B8"/>
<path d="M6.58851 11.1719H13.5938C14.9541 11.1719 16.0613 12.2676 16.0983 13.619L16.0534 13.6774H7.94238C6.87663 13.6774 6.0127 12.8134 6.0127 11.7477C6.0127 11.4297 6.27051 11.1719 6.58851 11.1719Z" fill="black"/>
<path d="M13.5942 11.1709H12.1729C13.1878 11.1709 13.1732 13.6764 13.1732 13.6764H16.0538L16.0987 13.618C16.0616 12.2666 14.9545 11.1709 13.5942 11.1709Z" fill="#EFEFEF"/>
<path d="M6.83145 27.5994C9.1217 27.5994 10.9783 25.7428 10.9783 23.4525C10.9783 21.1623 9.1217 19.3057 6.83145 19.3057C4.54119 19.3057 2.68457 21.1623 2.68457 23.4525C2.68457 25.7428 4.54119 27.5994 6.83145 27.5994Z" fill="#35495D"/>
<path d="M6.83199 19.3066C6.3173 19.3066 5.82487 19.4011 5.37012 19.5725C6.93899 20.1637 8.0553 21.678 8.0553 23.4536C8.0553 25.2293 6.93899 26.7436 5.37012 27.3348C5.82487 27.5062 6.3173 27.6006 6.83199 27.6006C9.1223 27.6006 10.9791 25.744 10.9791 23.4536C10.979 21.1633 9.1223 19.3066 6.83199 19.3066Z" fill="#2A3A4C"/>
<path d="M6.83106 25.8076C5.53281 25.8076 4.47656 24.7514 4.47656 23.4531C4.47656 22.1548 5.53275 21.0986 6.83106 21.0986C8.12937 21.0986 9.18556 22.1548 9.18556 23.4531C9.18556 24.7514 8.12937 25.8076 6.83106 25.8076Z" fill="#CADDEA"/>
<path d="M27.8529 27.5994C30.1432 27.5994 31.9998 25.7428 31.9998 23.4525C31.9998 21.1623 30.1432 19.3057 27.8529 19.3057C25.5627 19.3057 23.7061 21.1623 23.7061 23.4525C23.7061 25.7428 25.5627 27.5994 27.8529 27.5994Z" fill="#35495D"/>
<path d="M27.8526 19.3066C27.339 19.3066 26.8475 19.4006 26.3936 19.5713C27.9639 20.1618 29.0816 21.677 29.0816 23.4537C29.0816 25.2305 27.9639 26.7456 26.3936 27.3361C26.8475 27.5068 27.3389 27.6008 27.8526 27.6008C30.1429 27.6008 31.9996 25.7441 31.9996 23.4537C31.9996 21.1633 30.1429 19.3066 27.8526 19.3066Z" fill="#2A3A4C"/>
<path d="M27.8525 25.8076C26.5543 25.8076 25.498 24.7514 25.498 23.4531C25.498 22.1548 26.5542 21.0986 27.8525 21.0986C29.1509 21.0986 30.207 22.1548 30.207 23.4531C30.207 24.7514 29.1509 25.8076 27.8525 25.8076Z" fill="#CADDEA"/>
<path d="M28.2172 24.0907C27.7493 24.3352 27.1718 24.154 26.9273 23.6862L24.3008 18.6599L25.9952 17.7744L28.6217 22.8007C28.8662 23.2687 28.6852 23.8462 28.2172 24.0907Z" fill="#D0D1D2"/>
<path d="M30.8921 18.8074C30.0909 17.261 28.3526 16.3391 26.4675 16.5586L22.5001 9.5918L20.8589 10.1794C20.8589 10.1794 23.4197 16.3087 22.2838 20.486C22.1476 21.1935 21.5285 21.7049 20.808 21.7049H18.2524C18.2093 21.7049 18.1664 21.7042 18.1236 21.7027C15.6894 21.6205 14.0745 19.1345 14.9136 16.848L16.0987 13.6189C16.1001 13.6149 16.0972 13.6107 16.0929 13.6107H8.09419C3.62388 13.6107 0 17.2346 0 21.7049V23.0154C0 23.348 0.269625 23.6176 0.602188 23.6176H14.506H21.9727C23.0361 23.6176 23.9894 23.3201 24.3692 22.3267C24.5202 21.9321 24.7588 21.5751 25.0741 21.2939C26.8574 19.7036 29.3337 19.4674 30.5028 19.4522C30.8313 19.448 31.0432 19.0991 30.8921 18.8074Z" fill="#FFBA5F"/>
<path d="M8.40162 17.6387H5.37594C2.40687 17.6387 0 20.0455 0 23.0146C0 23.3472 0.269625 23.6168 0.602188 23.6168H13.1754V22.4124C13.1754 19.7759 11.0381 17.6387 8.40162 17.6387Z" fill="#CE843A"/>
<path d="M9.77734 17.8408C10.0485 18.0358 10.2257 18.3531 10.2257 18.7125V23.6168H13.1754V22.4124C13.1754 20.2543 11.743 18.4316 9.77734 17.8408Z" fill="#FFCC80"/>
<path d="M24.883 10.6064H20.6972C20.5241 10.6064 20.3838 10.466 20.3838 10.2929V9.26299C20.3838 8.99205 20.568 8.75574 20.8309 8.68974L24.7952 7.69368C25.023 7.63643 25.2438 7.80868 25.2438 8.04355V10.2457C25.2438 10.4449 25.0823 10.6064 24.883 10.6064Z" fill="#CE843A"/>
<path d="M24.7952 7.69463L23.4736 8.0267V10.6073H24.8831C25.0823 10.6073 25.2438 10.4458 25.2438 10.2466V8.04445C25.2439 7.80963 25.023 7.63745 24.7952 7.69463Z" fill="#C4C4C4"/>
<path d="M23.334 23.385C23.7964 23.1911 24.1653 22.8587 24.3691 22.3258C24.5243 21.92 24.7745 21.5566 25.1005 21.2695C26.8815 19.7005 29.3388 19.4663 30.5022 19.4512C30.831 19.447 31.0431 19.098 30.8918 18.806C30.0905 17.2598 28.3523 16.338 26.4673 16.5575C26.4673 16.5576 23.0093 19.4807 23.334 23.385Z" fill="#CE843A"/>
<path d="M17.0231 6.31849L19.0792 6.29787C19.1846 6.29681 19.2848 6.34349 19.3519 6.42481L20.341 7.62506C20.368 7.65787 20.3449 7.70737 20.3024 7.70768L17.42 7.72918C17.0559 7.72918 16.7607 7.43399 16.7607 7.06993V6.58093C16.7607 6.43599 16.8782 6.31849 17.0231 6.31849Z" fill="#EFEFEF"/>
</svg>
