<svg width="10" height="9" viewBox="0 0 10 9" fill="none" xmlns="http://www.w3.org/2000/svg">
<path d="M0.577118 1.57412C0.522735 1.38087 0.516761 1.17721 0.559725 0.981099C0.602688 0.784993 0.693267 0.602478 0.823465 0.449665C1.05507 0.226228 1.35984 0.0943459 1.68127 0.0784695C2.00269 0.062593 2.31897 0.163799 2.57147 0.363324L8.74147 5.88237C8.96521 6.11401 9.09729 6.41895 9.11322 6.7406C9.12914 7.06225 9.02782 7.37875 8.82806 7.63135C8.59661 7.85457 8.29213 7.98638 7.97098 8.00239C7.64983 8.01839 7.33376 7.91751 7.08126 7.71842L0.910776 2.19743C0.868689 2.03066 0.61896 1.73993 0.577118 1.57412Z" fill="#12362A"/>
</svg>
