<svg width="52" height="32" viewBox="0 0 52 32" fill="none" xmlns="http://www.w3.org/2000/svg">
<path d="M2.52926 21.7333C2.45754 21.4233 2.50113 21.0978 2.65189 20.8175L9.24305 9.77815C9.42659 9.47667 9.72119 9.25934 10.0634 9.17298C10.4056 9.08662 10.7681 9.13813 11.0727 9.31642C11.3742 9.49995 11.5915 9.79456 11.6779 10.1368C11.7642 10.479 11.7127 10.8415 11.5344 11.1461L4.9435 22.1864C4.75996 22.4879 4.46536 22.7052 4.12314 22.7915C3.78091 22.8779 3.41847 22.8264 3.11386 22.6481C2.85272 22.391 2.6529 22.0783 2.52926 21.7333Z" fill="#12362A"/>
<path d="M42.5771 13.5741C42.5227 13.3809 42.5168 13.1772 42.5597 12.9811C42.6027 12.785 42.6933 12.6025 42.8235 12.4497C43.0551 12.2262 43.3598 12.0943 43.6813 12.0785C44.0027 12.0626 44.319 12.1638 44.5715 12.3633L50.7415 17.8824C50.9652 18.114 51.0973 18.419 51.1132 18.7406C51.1291 19.0622 51.0278 19.3787 50.8281 19.6313C50.5966 19.8546 50.2921 19.9864 49.971 20.0024C49.6498 20.0184 49.3338 19.9175 49.0813 19.7184L42.9108 14.1974C42.8687 14.0307 42.619 13.7399 42.5771 13.5741Z" fill="#12362A"/>
</svg>
