<svg width="13" height="22" viewBox="0 0 13 22" fill="none" xmlns="http://www.w3.org/2000/svg">
<path d="M10.7689 21.7411C10.4466 21.7049 10.1351 21.603 9.85372 21.4416C9.57232 21.2803 9.32701 21.063 9.13294 20.8031L0.22194 2.52106C0.0275605 2.1129 -0.0081372 1.64705 0.121784 1.21404C0.251706 0.781034 0.537967 0.411789 0.92494 0.178061C1.33286 -0.0168711 1.79869 -0.053181 2.23189 0.0761874C2.66508 0.205556 3.03471 0.491362 3.26894 0.878061L12.1749 19.1601C12.3699 19.568 12.4062 20.0338 12.2768 20.467C12.1474 20.9002 11.8616 21.2698 11.4749 21.5041C11.3825 21.5939 11.2711 21.6618 11.1489 21.7028C11.0267 21.7439 10.8969 21.7569 10.7689 21.7411Z" fill="#FB3E6C"/>
</svg>
