<svg width="14" height="14" viewBox="0 0 14 14" fill="none" xmlns="http://www.w3.org/2000/svg">
<path d="M8.94315 13.9478C8.6576 13.9451 8.37979 13.8547 8.14729 13.6889C7.91478 13.5231 7.73881 13.2899 7.64315 13.0208L3.56815 1.89984C3.49016 1.55232 3.51932 1.18932 3.65178 0.858706C3.78424 0.528089 4.01379 0.245377 4.31015 0.0478412C4.65782 -0.0303674 5.02103 -0.00131956 5.35185 0.131151C5.68267 0.263622 5.96555 0.493289 6.16315 0.789841L10.2402 11.9088C10.3185 12.2564 10.2896 12.6195 10.1573 12.9504C10.025 13.2812 9.79553 13.5641 9.49915 13.7618C9.42618 13.8323 9.33839 13.8856 9.24219 13.9177C9.146 13.9499 9.04383 13.9602 8.94315 13.9478Z" fill="#E5E9FD"/>
<path d="M1.34452 10.4263C1.05897 10.4236 0.78116 10.3332 0.548656 10.1674C0.316152 10.0016 0.140174 9.76839 0.0445219 9.49933C-0.0333861 9.15135 -0.00388168 8.78793 0.129136 8.45708C0.262155 8.12623 0.492426 7.84353 0.789522 7.64633L11.9085 3.56933C12.2562 3.49112 12.6194 3.52016 12.9502 3.65264C13.281 3.78511 13.5639 4.01477 13.7615 4.31133C13.8398 4.65889 13.8109 5.02203 13.6786 5.35284C13.5464 5.68365 13.3169 5.96659 13.0205 6.16433L1.89952 10.2413C1.82657 10.3115 1.7389 10.3645 1.6429 10.3965C1.5469 10.4285 1.44497 10.4387 1.34452 10.4263Z" fill="#E5E9FD"/>
</svg>
