<svg width="115" height="59" viewBox="0 0 115 59" fill="none" xmlns="http://www.w3.org/2000/svg">
<path d="M93.3752 58.8994C54.9392 58.8994 18.6112 37.5714 0.564226 2.88239C0.369846 2.47423 0.334148 2.00838 0.464069 1.57537C0.593991 1.14236 0.880252 0.773117 1.26723 0.539389C1.67515 0.344457 2.14097 0.308147 2.57417 0.437515C3.00737 0.566884 3.377 0.85269 3.61123 1.23939C13.6941 20.4996 29.7248 35.9906 49.3189 45.4081C68.9131 54.8256 91.0238 57.6666 112.362 53.5084C112.823 53.4278 113.298 53.5308 113.684 53.7955C114.07 54.0601 114.338 54.4653 114.429 54.9245C114.521 55.3837 114.429 55.8605 114.173 56.2529C113.918 56.6453 113.519 56.9222 113.062 57.0244C106.57 58.2398 99.9806 58.8674 93.3752 58.8994Z" fill="#FF9101"/>
</svg>
