<svg width="16" height="12" viewBox="0 0 16 12" fill="none" xmlns="http://www.w3.org/2000/svg">
<path fill-rule="evenodd" clip-rule="evenodd" d="M15.9298 1.81549C13.5439 2.8241 12.3509 4.0092 12.3509 5.37082C13.3679 5.47168 14.2088 5.8289 14.8737 6.44247C15.5387 7.05604 15.8711 7.76626 15.8711 8.57314C15.8711 9.43046 15.5485 10.1533 14.9031 10.7416C14.2577 11.33 13.4461 11.6242 12.4683 11.6242C11.3731 11.6242 10.4246 11.2418 9.62278 10.4769C8.82095 9.71202 8.42004 8.78328 8.42004 7.69062C8.42004 4.41263 10.5517 1.84912 14.8151 0L15.9298 1.81549ZM7.50977 1.81549C5.10428 2.8241 3.90156 4.0092 3.90156 5.37082C4.93807 5.47168 5.78878 5.8289 6.45371 6.44247C7.11864 7.05604 7.4511 7.76626 7.4511 8.57314C7.4511 9.43046 7.12353 10.1533 6.46837 10.7416C5.81322 11.33 4.99674 11.6242 4.0189 11.6242C2.92372 11.6242 1.98012 11.2418 1.18807 10.4769C0.396019 9.71202 0 8.78328 0 7.69062C0 4.41263 2.12188 1.84912 6.3657 0L7.50977 1.81549Z" fill="#8A8A8A"/>
</svg>
