<svg width="22" height="22" viewBox="0 0 22 22" fill="none" xmlns="http://www.w3.org/2000/svg">
<path d="M13.7689 21.7411C13.4466 21.7049 13.1351 21.603 12.8537 21.4416C12.5723 21.2803 12.327 21.063 12.1329 20.8031L3.22194 2.52106C3.02756 2.1129 2.99186 1.64705 3.12178 1.21404C3.25171 0.781034 3.53797 0.411789 3.92494 0.178061C4.33286 -0.0168711 4.79869 -0.053181 5.23189 0.0761874C5.66508 0.205556 6.03471 0.491362 6.26894 0.878061L15.1749 19.1601C15.3699 19.568 15.4062 20.0338 15.2768 20.467C15.1474 20.9002 14.8616 21.2698 14.4749 21.5041C14.3825 21.5939 14.2711 21.6618 14.1489 21.7028C14.0267 21.7439 13.8969 21.7569 13.7689 21.7411Z" fill="#FB3E6C"/>
<path d="M1.81595 17.7567C1.49274 17.7211 1.18028 17.6195 0.897984 17.4582C0.615687 17.2968 0.369581 17.0791 0.174952 16.8187C-0.0179005 16.4109 -0.0526677 15.9462 0.0773767 15.5143C0.207421 15.0824 0.493033 14.7141 0.878952 14.4807L19.16 5.56966C19.5679 5.37473 20.0337 5.33842 20.4669 5.46779C20.9001 5.59716 21.2697 5.88296 21.504 6.26966C21.6989 6.67758 21.7352 7.14341 21.6058 7.57661C21.4765 8.00981 21.1907 8.37944 20.804 8.61366L2.51895 17.5227C2.28695 17.5227 2.05095 17.7567 1.81595 17.7567Z" fill="#FB3E6C"/>
</svg>
